<?xml version="1.0" encoding="UTF-8"?>
<svg id="Layer_2" data-name="Layer 2" xmlns="http://www.w3.org/2000/svg" viewBox="0 0 500.81 499.99">
  <defs>
    <style>
      .cls-1 {
        fill: #fff;
        stroke-width: 0px;
      }
    </style>
  </defs>
  <g id="Layer_1-2" data-name="Layer 1">
    <g>
      <path class="cls-1" d="m185.31,491.17c-.14,0-.29-.02-.42-.06-.45-.12-.83-.44-1.12-.95-5.42-9.4,17.52-116.62,52.23-244.09,31.24-115.05,69.76-237.32,79.61-237.32.14,0,.27.02.41.05,1.57.44,6.35,1.76-8.92,73.93-9.74,46.05-24.73,106.85-42.2,171.19-31.31,115.01-69.84,237.23-79.57,237.23ZM315.63,10.2c-6.82,0-39.87,94.93-78.24,236.25-34.04,125.03-57.54,234.04-52.37,243,.09.15.18.25.25.27h.05c6.71,0,39.72-94.89,78.18-236.16,17.47-64.32,32.45-125.09,42.19-171.11,14.57-68.86,10.47-72.1,9.95-72.24Z"/>
      <path class="cls-1" d="m156.69,479.82c-2.99,0-5.78-.57-8.31-1.71-5.51-2.45-9.78-7.53-12.68-15.09-14.75-38.5,7.15-137.41,53.26-240.52C240.57,107.15,307.27,20.17,344.12,20.17c2.98,0,5.77.57,8.29,1.7,5.52,2.45,9.78,7.53,12.68,15.09,14.75,38.51-7.15,137.38-53.25,240.43-51.63,115.4-118.33,202.41-155.16,202.41ZM344.12,21.61c-36.32,0-102.45,86.62-153.84,201.47-45.97,102.79-67.86,201.24-53.23,239.42,2.75,7.19,6.76,12,11.92,14.29,2.34,1.05,4.94,1.58,7.72,1.58,36.3,0,102.43-86.65,153.84-201.56,45.96-102.73,67.84-201.14,53.22-239.33-2.75-7.19-6.76-12-11.92-14.29-2.34-1.05-4.93-1.58-7.71-1.58Z"/>
      <path class="cls-1" d="m145.03,466.81c-13.35,0-25.04-3.32-34.74-9.88-13.92-9.38-23.03-24.75-27.09-45.68-10.92-56.35,17.29-144.92,71.89-225.63,61.7-91.22,142.37-152.5,200.73-152.5,13.34,0,25.02,3.31,34.71,9.85,25.56,17.27,34.92,55.07,26.38,106.42-8.52,51.17-33.8,109.76-71.2,164.98-61.71,91.18-142.36,152.45-200.68,152.45ZM355.82,34.56c-27.4,0-61.93,14.62-97.21,41.18-36.57,27.52-71.95,65.79-102.32,110.69-54.39,80.41-82.52,168.55-71.67,224.55,3.98,20.54,12.89,35.6,26.48,44.76,9.46,6.39,20.87,9.63,33.94,9.63,27.39,0,61.91-14.63,97.2-41.18,36.55-27.51,71.92-65.76,102.29-110.63,37.28-55.05,62.49-113.44,70.97-164.4,8.45-50.77-.7-88.05-25.76-104.99-9.45-6.37-20.86-9.6-33.91-9.6Z"/>
      <path class="cls-1" d="m156.76,455.71c-36.36,0-66.56-11.49-87.35-33.23-28.63-29.97-36.68-76.11-22.66-129.9,13.99-53.67,48.28-108.59,96.56-154.64,61.58-58.66,136.62-93.68,200.73-93.68,36.37,0,66.57,11.49,87.34,33.24,19.96,20.86,30.09,50.11,29.3,84.59-1.48,64.95-40.06,139.66-103.19,199.87-61.56,58.71-136.6,93.76-200.74,93.76ZM344.05,45.7c-63.75,0-138.42,34.87-199.74,93.29-48.09,45.86-82.24,100.54-96.16,153.96-13.89,53.3-5.97,98.95,22.3,128.55,20.51,21.45,50.35,32.78,86.31,32.78,63.78,0,138.45-34.9,199.75-93.36,62.86-59.95,101.27-134.28,102.75-198.86.78-34.09-9.22-62.99-28.91-83.56-20.49-21.45-50.33-32.79-86.3-32.79Z"/>
      <path class="cls-1" d="m192.24,449.98c-74.96,0-136.21-31.69-163.85-84.77-18.33-35.2-20.86-76.47-7.31-119.35,20.02-63.33,73.93-122.91,144.23-159.37,46.04-23.88,95.56-36.5,143.2-36.5,74.98,0,136.28,31.7,163.97,84.8,18.31,35.16,20.81,76.4,7.26,119.28-20.03,63.36-73.92,122.93-144.16,159.35-46.1,23.91-95.67,36.55-143.34,36.55ZM308.52,51.44c-47.41,0-96.7,12.56-142.54,36.33C96.02,124.06,42.36,183.32,22.46,246.3c-13.43,42.51-10.94,83.39,7.21,118.25,27.38,52.59,88.16,83.99,162.57,83.99,47.44,0,96.78-12.58,142.68-36.39,69.91-36.25,123.53-95.51,143.45-158.51,13.44-42.51,10.96-83.37-7.16-118.18-27.44-52.61-88.26-84.02-162.69-84.02Z"/>
      <path class="cls-1" d="m239.31,451.69c-125.34,0-227.6-75.88-237.87-176.51-4.67-45.42,10.22-91.87,41.94-130.78,42.7-52.39,110.69-86.84,186.56-94.51,10.5-1.06,21.13-1.6,31.59-1.6,125.31,0,227.59,75.89,237.92,176.52,5.46,53.46-15.33,106.34-58.54,148.88-43.16,42.5-103.54,69.63-170.03,76.39-10.49,1.06-21.11,1.6-31.55,1.6Zm22.21-401.95c-10.41,0-20.99.54-31.45,1.59-75.48,7.63-143.13,41.89-185.59,93.99C12.57,184.49-1.82,229.35,2.87,275.04c10.2,99.89,111.84,175.21,236.44,175.21,10.4,0,20.97-.54,31.41-1.59,66.16-6.73,126.24-33.71,169.17-75.98,42.89-42.23,63.53-94.69,58.12-147.71-10.24-99.9-111.91-175.23-236.48-175.23Z"/>
      <path class="cls-1" d="m281.95,460.18c-33.92,0-67.89-6.05-100.97-17.98-62.89-22.72-114.78-64.04-146.14-116.37C3.46,273.47-3.6,216.35,14.96,165,42.44,88.93,122.46,39.77,218.82,39.77c33.96,0,67.97,6.07,101.08,18.03,62.85,22.71,114.72,64.03,146.06,116.35,31.37,52.37,38.43,109.48,19.87,160.83-27.48,76.05-107.51,125.19-203.88,125.19ZM218.82,41.22c-95.74,0-175.23,48.78-202.5,124.28-18.41,50.94-11.39,107.62,19.76,159.6,31.18,52.04,82.82,93.15,145.39,115.75,32.92,11.87,66.73,17.89,100.48,17.89,95.76,0,175.26-48.77,202.53-124.24,18.4-50.93,11.39-107.62-19.75-159.6-31.17-52.04-82.78-93.14-145.32-115.73-32.95-11.91-66.8-17.94-100.59-17.94Z"/>
      <path class="cls-1" d="m306.76,472.53c-66.36,0-135.88-30.26-190.75-83.01-56.24-53.98-89.26-123.67-90.59-191.18-.95-48.33,14.45-90.4,44.55-121.66,30.57-31.75,74.65-49.24,124.11-49.24,66.35,0,135.9,30.23,190.83,82.95,56.24,54.02,89.24,123.75,90.54,191.31.93,48.33-14.5,90.37-44.6,121.59-30.57,31.75-74.63,49.23-124.08,49.23ZM194.07,28.88c-49.06,0-92.77,17.33-123.07,48.8-29.83,30.98-45.09,72.69-44.15,120.63,1.32,67.14,34.18,136.45,90.15,190.17,54.6,52.5,123.76,82.61,189.75,82.61,49.05,0,92.74-17.33,123.04-48.79,29.83-30.94,45.12-72.63,44.2-120.57-1.29-67.19-34.13-136.55-90.1-190.3-54.65-52.46-123.84-82.55-189.83-82.55Z"/>
      <path class="cls-1" d="m309.06,485.26c-76.5,0-160.74-63.06-209.6-156.93-38.31-73.49-49.32-154.92-29.47-217.83,12.01-38.06,34.45-66.54,64.88-82.35,17.26-8.94,36.4-13.47,56.87-13.47,76.53,0,160.8,63.09,209.69,156.99,38.28,73.53,49.26,154.98,29.37,217.88-12.02,38.01-34.45,66.43-64.85,82.2-17.26,8.96-36.4,13.51-56.89,13.51ZM191.73,16.12c-20.24,0-39.15,4.48-56.2,13.31-30.09,15.63-52.28,43.81-64.17,81.5-19.74,62.56-8.76,143.58,29.38,216.73,48.62,93.4,132.34,156.16,208.32,156.16,20.26,0,39.17-4.49,56.23-13.35,30.06-15.58,52.24-43.71,64.14-81.35,19.78-62.54,8.83-143.58-29.27-216.78C351.5,78.9,267.74,16.12,191.73,16.12Z"/>
      <path class="cls-1" d="m291.71,495c-68.74,0-142.85-91.76-172.38-213.45-21.68-89.54-15.13-177.91,17.09-230.63,14.35-23.49,33.39-38.65,55.06-43.87,5.72-1.38,11.64-2.08,17.61-2.08,68.81,0,142.92,91.76,172.38,213.45,21.73,89.42,15.24,177.73-16.95,230.48-14.37,23.56-33.46,38.78-55.2,44.02-5.72,1.38-11.65,2.08-17.61,2.08ZM209.08,6.42c-5.85,0-11.66.69-17.27,2.04-21.29,5.12-40.02,20.07-54.17,43.22-32.03,52.4-38.51,140.36-16.91,229.54,29.38,121.06,102.88,212.34,170.98,212.34,5.85,0,11.66-.69,17.27-2.04,21.35-5.15,40.13-20.14,54.3-43.37,31.99-52.43,38.42-140.33,16.78-229.39C350.76,97.71,277.25,6.42,209.08,6.42Z"/>
      <path class="cls-1" d="m260.79,499.65c-23.95,0-47.55-25.5-66.46-71.81-18.84-46.14-30.96-107.8-34.11-173.63-3.19-66.58,3.12-129.61,17.78-177.5C192.73,28.58,214.2,1.44,238.44.29c24.55-1.15,48.72,24.48,68.07,71.77,18.89,46.16,31.03,107.83,34.19,173.66,3.19,66.56-3.14,129.59-17.83,177.49-14.76,48.12-36.24,75.25-60.48,76.4-.53.03-1.06.04-1.59.04ZM239.97,1.7c-.49,0-.98.01-1.47.03-23.58,1.12-44.58,27.89-59.13,75.39-14.61,47.73-20.91,110.59-17.72,177.01,6.46,134.58,50.93,244.07,99.14,244.07.51,0,1.02-.01,1.52-.04,23.59-1.12,44.6-27.89,59.17-75.39,14.64-47.74,20.95-110.6,17.77-177C332.79,111.2,288.26,1.7,239.97,1.7Z"/>
      <path class="cls-1" d="m222.74,498.28c-.27,0-.54-.01-.81-.05-22.1-2.54-26.94-113.59-11-252.82C226.66,108.71,256.16,1.61,278.09,1.61c.27,0,.53.02.8.05,22.1,2.54,26.93,113.59,11,252.82-15.65,136.71-45.15,243.8-67.15,243.8ZM278.09,3.06c-20.86,0-50.34,108.8-65.73,242.53-7.56,66.11-10.65,128.7-8.7,176.25,1.91,46.52,8.63,73.85,18.44,74.97,20.96,2.3,50.9-107.38,66.36-242.49,7.56-66.11,10.65-128.7,8.7-176.25-1.91-46.52-8.63-73.85-18.44-74.97-.21-.02-.42-.04-.63-.04Z"/>
      <path class="cls-1" d="m304.97,77.66c-4.78,0-9.7-.57-14.63-1.7-10.3-2.36-19.46-6.88-25.81-12.71-6.46-5.94-9.24-12.57-7.85-18.65,2.13-9.29,13.61-15.3,29.25-15.3,4.8,0,9.75.58,14.71,1.71,21.35,4.89,36.41,18.96,33.57,31.35-2.13,9.29-13.61,15.3-29.24,15.3Zm-19.04-46.92c-14.94,0-25.87,5.57-27.84,14.18-1.28,5.56,1.36,11.69,7.42,17.27,6.16,5.67,15.09,10.06,25.15,12.37,4.82,1.11,9.64,1.67,14.31,1.67,14.93,0,25.86-5.57,27.83-14.18,2.66-11.62-11.91-24.91-32.48-29.63-4.85-1.11-9.69-1.68-14.39-1.68Z"/>
      <path class="cls-1" d="m312.54,107.87c-9.4,0-19.07-1.13-28.75-3.35-20.21-4.63-38.18-13.5-50.6-24.97-12.52-11.56-17.94-24.4-15.24-36.15,4.15-18.09,26.57-29.78,57.13-29.78,9.39,0,19.08,1.13,28.78,3.35,20.19,4.63,38.15,13.5,50.57,24.97,12.54,11.58,17.96,24.46,15.26,36.24-4.13,18.03-26.56,29.68-57.14,29.68Zm-37.47-92.81c-29.86,0-51.73,11.25-55.72,28.66-2.57,11.23,2.69,23.58,14.82,34.77,12.24,11.3,29.98,20.04,49.95,24.62,9.58,2.2,19.15,3.31,28.43,3.31,29.88,0,51.76-11.21,55.74-28.56,2.58-11.26-2.69-23.64-14.83-34.86-12.24-11.31-29.97-20.05-49.91-24.63-9.6-2.2-19.18-3.32-28.46-3.32Z"/>
      <path class="cls-1" d="m318.61,141.54c-13.78,0-27.97-1.65-42.18-4.91-29.64-6.79-56-19.79-74.22-36.61-18.33-16.91-26.26-35.68-22.33-52.84,6.03-26.3,38.84-43.3,83.58-43.3,13.8,0,28.03,1.66,42.27,4.92,61.28,14.05,104.56,54.13,96.49,89.34-6.04,26.36-38.86,43.39-83.61,43.39ZM263.45,5.32c-44.04,0-76.3,16.56-82.17,42.18-3.81,16.63,3.97,34.91,21.9,51.46,18.04,16.65,44.17,29.52,73.57,36.26,14.11,3.23,28.2,4.87,41.86,4.87,44.05,0,76.31-16.59,82.2-42.27,7.9-34.44-34.9-73.75-95.41-87.62-14.14-3.24-28.26-4.89-41.95-4.89Z"/>
      <path class="cls-1" d="m323,178.01c-17.83,0-36.2-2.14-54.6-6.36-79.24-18.17-135.21-70.01-124.77-115.57C151.42,22.09,193.82.12,251.65.12c17.84,0,36.21,2.14,54.62,6.36,38.31,8.78,72.38,25.59,95.95,47.33,23.67,21.84,33.91,46.04,28.84,68.16-7.8,34.04-50.22,56.04-108.05,56.04ZM251.65,1.56c-57.13,0-98.98,21.53-106.61,54.84-10.27,44.79,45.22,95.86,123.69,113.85,18.3,4.19,36.56,6.32,54.28,6.32,57.14,0,99-21.56,106.65-54.93,4.95-21.59-5.14-45.31-28.42-66.78-23.38-21.57-57.22-38.26-95.29-46.98-18.3-4.2-36.57-6.32-54.29-6.32Z"/>
      <path class="cls-1" d="m325.64,216.14c-21.44,0-43.55-2.57-65.69-7.65-95.26-21.84-162.57-84.08-150.03-138.76C119.29,28.86,170.25,2.44,239.73,2.44c21.45,0,43.56,2.57,65.7,7.65,46.07,10.56,87.03,30.77,115.33,56.89,28.41,26.23,40.7,55.33,34.6,81.93-9.36,40.83-60.28,67.22-129.72,67.22ZM239.73,3.88c-68.79,0-119.19,25.97-128.4,66.17-12.35,53.9,54.46,115.37,148.95,137.03,22.04,5.05,44.03,7.61,65.37,7.61,68.75,0,119.11-25.95,128.32-66.1,5.98-26.08-6.16-54.69-34.17-80.55-28.12-25.96-68.84-46.04-114.67-56.54-22.04-5.05-44.04-7.61-65.38-7.61Z"/>
      <path class="cls-1" d="m326.38,255.19c-24.52,0-49.8-2.94-75.12-8.75-108.95-24.97-185.92-96.18-171.59-158.73C90.37,41.05,148.62,10.9,228.08,10.9c24.54,0,49.83,2.94,75.16,8.75,108.9,24.96,185.85,96.13,171.52,158.63-10.71,46.72-68.95,76.92-148.38,76.92ZM228.08,12.34c-78.76,0-136.46,29.71-147,75.7-14.16,61.78,62.33,132.21,170.5,157.01,25.22,5.78,50.38,8.71,74.8,8.71,78.73,0,136.43-29.75,146.98-75.8,14.15-61.73-62.31-132.12-170.44-156.9-25.23-5.78-50.41-8.71-74.84-8.71Z"/>
      <path class="cls-1" d="m325.17,294.1c-26.99,0-54.79-3.24-82.63-9.62-119.93-27.49-204.67-105.84-188.89-174.66,11.79-51.43,75.94-84.66,163.43-84.66,27,0,54.83,3.24,82.7,9.63,119.88,27.48,204.58,105.86,188.79,174.72-11.78,51.38-75.91,84.58-163.39,84.58ZM217.07,26.61c-86.79,0-150.39,32.79-162.03,83.54-15.6,68.04,68.66,145.62,187.81,172.93,27.74,6.36,55.43,9.58,82.31,9.58,41.73,0,79.09-7.73,108.04-22.35,29.54-14.92,48.2-36.05,53.94-61.12,15.61-68.09-68.6-145.69-187.71-173-27.77-6.37-55.48-9.59-82.38-9.59Z"/>
      <path class="cls-1" d="m322.29,331.94c-28.82,0-58.52-3.46-88.27-10.28-61.94-14.2-117.01-41.36-155.06-76.47-38.15-35.21-54.66-74.23-46.49-109.87,12.58-54.86,81.02-90.32,174.38-90.32,28.81,0,58.49,3.46,88.23,10.27,127.97,29.33,218.37,112.97,201.53,186.44-12.56,54.81-80.99,90.23-174.32,90.23ZM206.85,46.44c-44.56,0-84.46,8.26-115.37,23.88-31.54,15.94-51.46,38.53-57.6,65.31-8.05,35.12,8.31,73.65,46.06,108.49,37.87,34.95,92.7,61.98,154.4,76.13,29.65,6.8,59.24,10.24,87.95,10.24,44.55,0,84.42-8.25,115.32-23.85,31.54-15.92,51.45-38.49,57.59-65.26,16.66-72.69-73.26-155.55-200.45-184.71-29.63-6.79-59.21-10.24-87.91-10.24Z"/>
      <path class="cls-1" d="m317.47,367.87c-29.91,0-60.73-3.59-91.61-10.67-64.32-14.74-121.51-42.95-161.04-79.44-39.63-36.58-56.78-77.11-48.29-114.12,6.48-28.26,27.43-52.05,60.59-68.8,32.3-16.32,73.96-24.94,120.46-24.94,29.94,0,60.78,3.59,91.69,10.68,64.29,14.74,121.45,42.94,160.96,79.42,39.62,36.58,56.77,77.11,48.28,114.13-6.48,28.26-27.43,52.05-60.6,68.8-32.31,16.32-73.96,24.95-120.45,24.95ZM197.59,71.34c-46.28,0-87.71,8.57-119.81,24.79-32.77,16.55-53.46,40.01-59.83,67.83-8.37,36.49,8.63,76.53,47.87,112.74,39.34,36.31,96.3,64.4,160.38,79.09,30.77,7.05,61.48,10.63,91.29,10.63,46.27,0,87.7-8.57,119.8-24.79,32.77-16.55,53.46-40.01,59.84-67.83,8.37-36.49-8.63-76.53-47.86-112.75-39.33-36.31-96.26-64.39-160.31-79.07-30.8-7.06-61.54-10.64-91.37-10.64Z"/>
      <path class="cls-1" d="m311.09,400.79c-30.28,0-61.49-3.63-92.74-10.8-65.12-14.93-123.02-43.49-163.04-80.43C15.18,272.53-2.19,231.49,6.4,194.02c13.2-57.61,85.12-94.83,183.22-94.83,30.33,0,61.59,3.64,92.91,10.82,134.52,30.84,229.58,118.71,211.89,195.87-6.56,28.61-27.78,52.69-61.36,69.65-32.71,16.52-74.89,25.25-121.96,25.25ZM189.62,100.63c-46.84,0-88.77,8.67-121.25,25.07-33.16,16.74-54.1,40.48-60.56,68.64-8.47,36.95,8.75,77.49,48.48,114.16,39.84,36.77,97.51,65.21,162.39,80.08,31.15,7.14,62.24,10.76,92.42,10.76,46.85,0,88.8-8.68,121.31-25.1,33.19-16.76,54.15-40.51,60.6-68.69,17.51-76.4-77.06-163.49-210.8-194.15-31.21-7.16-62.36-10.78-92.59-10.78Z"/>
      <path class="cls-1" d="m303.21,430.09c-29.91,0-60.73-3.59-91.61-10.66-64.32-14.75-121.51-42.96-161.04-79.44C10.94,303.41-6.21,262.88,2.27,225.86c6.48-28.25,27.43-52.04,60.59-68.79,32.3-16.32,73.96-24.94,120.46-24.94,29.93,0,60.78,3.59,91.69,10.68,132.86,30.46,226.73,117.28,209.25,193.54-6.48,28.26-27.43,52.05-60.6,68.8-32.31,16.32-73.96,24.94-120.45,24.94Zm-119.88-296.52c-46.28,0-87.71,8.57-119.81,24.79C30.75,174.9,10.06,198.36,3.68,226.18c-8.37,36.49,8.63,76.53,47.87,112.74,39.34,36.31,96.3,64.4,160.38,79.09,30.77,7.05,61.48,10.63,91.29,10.63,46.27,0,87.7-8.57,119.8-24.79,32.77-16.55,53.46-40.01,59.84-67.84,17.3-75.49-76.08-161.54-208.16-191.82-30.8-7.06-61.54-10.64-91.36-10.64Z"/>
      <path class="cls-1" d="m294.1,454.92c-28.82,0-58.53-3.46-88.28-10.28-61.94-14.2-117.01-41.36-155.06-76.47C12.62,332.96-3.89,293.94,4.28,258.3c12.58-54.87,80.99-90.32,174.3-90.32,28.83,0,58.54,3.46,88.31,10.29,127.96,29.33,218.37,112.96,201.53,186.43-12.56,54.81-80.99,90.23-174.31,90.23Zm-115.53-285.5c-44.54,0-84.42,8.25-115.31,23.87-31.53,15.94-51.44,38.53-57.58,65.33-8.05,35.12,8.31,73.65,46.06,108.49,37.87,34.95,92.7,61.98,154.4,76.12,29.65,6.8,59.24,10.24,87.96,10.24,44.54,0,84.42-8.25,115.32-23.85,31.54-15.92,51.46-38.49,57.59-65.26,16.66-72.69-73.26-155.55-200.45-184.7-29.67-6.8-59.27-10.25-87.99-10.25Z"/>
      <path class="cls-1" d="m283.76,474.74c-26.98,0-54.78-3.24-82.63-9.62C81.2,437.63-3.54,359.28,12.23,290.47c11.78-51.38,75.89-84.58,163.32-84.58,27.03,0,54.88,3.24,82.79,9.64,119.88,27.48,204.58,105.82,188.81,174.64-11.78,51.38-75.92,84.58-163.4,84.58Zm-108.2-267.42c-86.74,0-150.29,32.76-161.92,83.46-15.6,68.04,68.66,145.62,187.81,172.93,27.74,6.36,55.43,9.58,82.3,9.58,41.73,0,79.09-7.73,108.05-22.35,29.54-14.92,48.2-36.05,53.95-61.12,15.6-68.04-68.62-145.61-187.73-172.91-27.8-6.37-55.55-9.6-82.47-9.6Z"/>
      <path class="cls-1" d="m272.68,489.09c-24.5,0-49.75-2.94-75.04-8.74-52.69-12.08-99.55-35.2-131.96-65.12-32.51-30.01-46.58-63.26-39.62-93.62,10.7-46.66,68.95-76.81,148.4-76.81,24.55,0,49.84,2.94,75.17,8.75,52.69,12.08,99.55,35.19,131.93,65.07,32.49,29.98,46.55,63.21,39.59,93.56-10.71,46.72-68.98,76.91-148.46,76.91Zm-98.23-242.84c-78.76,0-136.46,29.71-147,75.69-6.84,29.83,7.08,62.59,39.2,92.23,32.23,29.75,78.86,52.75,131.31,64.77,25.18,5.77,50.32,8.7,74.72,8.7,78.78,0,136.51-29.75,147.06-75.79,6.84-29.83-7.07-62.57-39.16-92.18-32.2-29.71-78.82-52.7-131.27-64.72-25.23-5.78-50.41-8.72-74.85-8.72Z"/>
      <path class="cls-1" d="m261.04,497.55c-21.42,0-43.49-2.57-65.59-7.64-95.26-21.84-162.56-84.12-150.01-138.84,9.37-40.87,60.35-67.28,129.88-67.28,21.43,0,43.52,2.57,65.63,7.64,46.06,10.56,87.01,30.77,115.32,56.92,28.41,26.24,40.7,55.33,34.61,81.9-9.37,40.88-60.33,67.3-129.84,67.3Zm-85.73-212.32c-68.83,0-119.26,25.97-128.47,66.16-12.37,53.95,54.44,115.46,148.93,137.12,22,5.04,43.96,7.6,65.27,7.6,68.8,0,119.22-25.98,128.43-66.18,5.97-26.05-6.17-54.65-34.18-80.52-28.13-25.98-68.85-46.07-114.67-56.57-22.01-5.05-43.98-7.6-65.31-7.6Z"/>
      <path class="cls-1" d="m249.23,499.88c-17.83,0-36.21-2.14-54.62-6.36-79.24-18.17-135.22-69.97-124.79-115.49,7.8-34.05,50.22-56.04,108.05-56.04,17.83,0,36.2,2.14,54.6,6.36,79.24,18.17,135.22,70.01,124.77,115.57-7.79,34-50.19,55.96-108.02,55.96Zm-71.35-176.45c-57.14,0-99,21.56-106.65,54.92-10.26,44.74,45.24,95.78,123.71,113.76,18.3,4.19,36.57,6.32,54.29,6.32,57.13,0,98.98-21.53,106.62-54.84,10.27-44.79-45.22-95.86-123.69-113.85-18.3-4.19-36.56-6.32-54.28-6.32Z"/>
      <path class="cls-1" d="m237.34,496.11c-13.78,0-27.97-1.65-42.18-4.91-61.32-14.06-104.63-54.18-96.55-89.44,6.04-26.36,38.86-43.39,83.61-43.39,13.8,0,28.02,1.66,42.26,4.92,29.6,6.79,55.94,19.78,74.15,36.59,18.33,16.92,26.25,35.68,22.32,52.84-6.04,26.36-38.86,43.39-83.6,43.39Zm-55.12-136.3c-44.05,0-76.32,16.59-82.21,42.27-7.91,34.49,34.92,73.84,95.47,87.72,14.11,3.23,28.19,4.87,41.86,4.87,44.05,0,76.31-16.59,82.2-42.27,3.81-16.63-3.96-34.91-21.89-51.46-18.03-16.64-44.13-29.52-73.49-36.25-14.14-3.24-28.25-4.89-41.94-4.89Z"/>
      <path class="cls-1" d="m225.8,486.28c-9.39,0-19.07-1.13-28.75-3.35-20.21-4.63-38.18-13.5-50.6-24.97-12.52-11.56-17.94-24.4-15.24-36.15,4.14-18.04,26.55-29.7,57.1-29.7,9.4,0,19.09,1.13,28.8,3.35,41.84,9.59,71.37,37.01,65.85,61.13-4.13,18.03-26.56,29.69-57.15,29.69Zm-37.5-92.73c-29.85,0-51.71,11.22-55.69,28.58-2.57,11.23,2.69,23.58,14.81,34.77,12.24,11.3,29.98,20.05,49.95,24.62,9.58,2.2,19.14,3.31,28.43,3.31,29.88,0,51.76-11.21,55.74-28.57,5.35-23.34-23.7-49.99-64.76-59.4-9.6-2.2-19.18-3.32-28.47-3.32Z"/>
      <path class="cls-1" d="m214.88,470.7c-4.78,0-9.71-.57-14.64-1.7-10.3-2.36-19.46-6.87-25.81-12.71-6.46-5.94-9.24-12.57-7.85-18.65,2.14-9.34,13.66-15.37,29.36-15.37,4.78,0,9.7.57,14.62,1.7,10.25,2.35,19.39,6.88,25.72,12.74,6.44,5.96,9.22,12.6,7.82,18.69-2.13,9.3-13.61,15.3-29.23,15.3Zm-18.93-47c-14.76,0-26,5.73-27.95,14.25-1.28,5.56,1.36,11.7,7.42,17.27,6.16,5.67,15.09,10.06,25.15,12.37,4.82,1.11,9.64,1.67,14.31,1.67,14.93,0,25.85-5.57,27.83-14.18,1.28-5.57-1.35-11.71-7.4-17.31-6.15-5.7-15.05-10.1-25.07-12.4-4.82-1.11-9.63-1.67-14.3-1.67Z"/>
      <path class="cls-1" d="m250.79,499.99c-18.8,0-37.7-2.15-56.19-6.39-65.18-14.94-120.66-54.33-156.21-110.92C2.84,326.1-8.52,259.1,6.4,194.02c12.7-55.43,44.31-105.28,88.98-140.38C139.41,19.05,194.33,0,250.03,0c18.81,0,37.74,2.15,56.25,6.39,65.14,14.93,120.59,54.32,156.14,110.9,35.54,56.58,46.91,123.56,32,188.59-12.71,55.46-44.32,105.34-89,140.46-44.02,34.6-98.94,53.65-154.62,53.65Zm-.75-498.55C133.45,1.44,33.84,80.77,7.8,194.34c-14.83,64.7-3.53,131.32,31.81,187.58,35.34,56.26,90.5,95.43,155.31,110.28,18.38,4.21,37.18,6.35,55.87,6.35,116.57,0,216.18-79.36,242.22-192.99,14.82-64.66,3.52-131.25-31.81-187.51-35.34-56.26-90.47-95.41-155.24-110.26-18.4-4.22-37.22-6.36-55.93-6.36Z"/>
    </g>
  </g>
</svg>