<?xml version="1.0" encoding="UTF-8"?>
<svg id="Layer_2" data-name="Layer 2" xmlns="http://www.w3.org/2000/svg" viewBox="0 0 412.26 369.31">
  <defs>
    <style>
      .cls-1 {
        fill: #fc7753;
        stroke-width: 0px;
      }
    </style>
  </defs>
  <g id="Layer_2-2" data-name="Layer 2">
    <g id="Layer_1-2" data-name="Layer 1-2">
      <g>
        <path class="cls-1" d="m294.42,8.7c5.41,2.43,10.83,4.86,16.24,6.75.29-.3.67-.34,1.09-.1.9.51,2.06.8,2.92,1.4,6.2,1.83,12.4,2.8,18.6,2.09,3.62-.42,7.1-1.39,10.49-2.76l-.16-.75,2.76-.39c1.8-.84,3.58-1.78,5.34-2.81-4.19-2.27-8.53-4.23-12.97-5.9-1.88.7-3.77,1.22-5.64,1.52-.52.65-1.24,1.04-2.59.72-.37-.09-.71-.23-1.01-.41-8.51.11-18.02-3.79-27.63-8.06-3.37.1-6.76.38-10.17.84-1.45.2-2.91.42-4.36.69l.03.95c-.65.73-1.44.56-2.24.29.18-.26.19-.55.16-.84-1.48.31-2.96.64-4.45,1.02,3.58,1.33,7.22,2.91,10.87,4.53l2.71,1.21h.01Zm-3.52-3.92c.04-.4.08-.8.12-1.2.09-.31.19-.62.28-.93.15.07.29.15.41.23.94.59,1.19,1.29.07,2.23l-.07-.02-.81-.3h0Z"/>
        <path class="cls-1" d="m57.84,50.43c.84-.1,1.67-.22,2.5-.38.33-.06.66-.13.99-.2,3.46-.74,6.8-1.97,10.07-3.53.73-.35,1.46-.71,2.19-1.1,2.78-1.47,5.51-3.16,8.21-4.98,2.01-1.36,4.02-2.8,6.01-4.28l1.45-1.08.48-.36c1.1-.83,2.2-1.66,3.3-2.5l.32-.24.05-.03c3.15-2.4,6.31-4.79,9.46-7,.08-.62.15-1.27.51-1.69-3.39,0-6.73.17-10.01.51l-.32.03-.31.03c-.07.26-.3.56-.55.92l-.05-.85c-.8.09-1.6.2-2.4.31l-.48.07c-.48.07-.97.14-1.45.22-1.22.2-2.44.42-3.65.66-.79.59-1.57,1.19-2.36,1.77-2.11,1.57-4.22,3.09-6.33,4.5.11,2.64.64,5.35-1.7,7.62.22-2.15-.33-4.42.06-6.54l-.24.16c-.73.47-1.46.92-2.19,1.36-3.36,2-6.72,3.63-10.07,4.65-.33.1-.66.2-.99.28-1.25.34-2.5.58-3.75.72l-.37.04-2.36,1.85c.04-.82.19-1.38.48-1.74-1.53.04-3.09-.05-4.67-.25-3.95,2.63-7.73,5.52-11.3,8.68,6.5,2,12.99,3.1,19.48,2.35v.02Zm36.26-21.46h0l.03-.02-.03.02Zm-1.07-1.94l.32-.17.03-.02.71,2.13-.74.55h-.02.01l-.32-.15c-1.55-.79-1.37-1.56,0-2.33h.01Zm-3.3,1.49l.16-.03c.02.09.07.21.03.27-.05.08-.12.16-.19.23l-.13.13c-.03-.21-.08-.39-.07-.55,0-.03.1-.04.2-.05Zm-1.93-2.94c.4.03.71.24.93.79-.39.26-.68.32-.93.24-.37-.11-.64-.5-.93-.86.34-.11.66-.18.93-.16h0Zm-.59,2.58c.22.07.42.16.59.25,1.46.81,1.02,2.44,1.12,3.83.07.35.14.71.22,1.06l.11.47v.02l.1.48h-.02l-.09-.44-.11-.52c-.08-.35-.15-.7-.23-1.05-.57-.14-.88-.55-1.11-1.04-.59-1.3-.58-3.2-3.16-2.3.55-2.49,1.84-.96,2.57-.74v-.02Zm-5.43,1.16h.01c.07,0,.46.19.45.24-.05.29-.18.57-.3.89l-.16-.08c-.23-.12-.46-.24-.46-.27.11-.28.26-.54.44-.78h.02Zm-8.2,9.95l.17-.39h.01v.02l-.18.39-.18.38.18-.4Zm-2.59-.08l.4.49.2.25c.07.06.15.11.22.17l-.25-.15h0l-.17-.21-.43-.52.03-.02h0Zm-10.66.74l.98.05v-.02h0v.02s-.01,0-.01,0c-.24.89-.59.91-.98.67-.32-.2-.67-.58-.98-.78l.98.05h.01Z"/>
        <path class="cls-1" d="m264.78,29.87c2.48-.29,5.07-.17,7.72.23,1.58.24,3.18.58,4.81,1-.16-.24-.22-.61-.22-1.06.82.06,1.89-.21,1.62,1.2-.15.06-.29.1-.41.13.98.27,1.96.58,2.95.91,1.46.48,2.92,1.01,4.4,1.58l.32-.28.03.42c1.29.51,2.59,1.04,3.9,1.59,2.56-4.71-2.51-1.97-3.55-3.17-.58-1.49-3.64.53-3.33-2.21,1.29-1.76,2.8-2.55,4.51-.87,1.66-1.08-.97-3.26,1.54-3.85-.02.41-.04.83-.06,1.23-1.03,3.38.85,4.85,3.05,6.1.72.41,1.48.8,2.19,1.23-.09,2.42,1.19,2.94,3.19,2.45l.32-.09c.67.21,1.84,1.07.8,1.12-.57.03-.9.31-1.12.72-.09.17-.16.35-.22.55l.22.1.47.21,1.2.54c1.99.89,3.98,1.78,5.97,2.63,1.16.5,2.31.98,3.47,1.45,4.69,1.9,9.37,3.55,14.05,4.59,2.65.59,5.3.98,7.95,1.12,2.07.11,4.14.05,6.21-.18,2.01-.23,3.98-.63,5.92-1.17.36-.1.7-.26,1.06-.37-.35.04-.74,0-1.06.11-.17.05-.32.15-.42.32-.52-.69-1.82-.96-1.29-2.21.64-.14,1.11-.92,1.71-1.14.32-.12.69-.07,1.14.32.43.38.67,1.14.69,1.72,0,.45-.16.63-.38.75,3.04-.98,6.01-2.24,8.92-3.81.48-3.23,4.81-5.58,2.45-9.47.22-1.24.45-2.49.68-3.73.98-.41.92-2.05,2.59-1.85.43,1.41.88,2.91,1.34,4.4l-.03,2.54c-2.82,1.56-3.29,3.55-2.72,5.6,5.08-3.16,10.03-6.92,14.97-10.68l2.37-1.8c-2.75-2.57-5.61-5.01-8.58-7.28l-.43.32c-7.68,5.84-15.36,11.69-23.01,14.65-.57.22-1.15.43-1.72.61-.7,2.33-1.36,4.68-4.74,4.65.75-1.11,1.07-2.25-.25-3.48l-.47.06c-1.61.18-3.27.21-4.96.09-2.58-.18-5.24-.69-7.95-1.42h-.03l-.22,3.2c-2.19-.62-1.75-3.41-4.05-2.53l.23-1.9c-3.28-1.11-6.63-2.47-10-3.93-1.15-.5-2.31-1.01-3.47-1.53l-2.7-1.21-.25-.11-1.45,1.39-1.58-.41-1.67-.44-1.04-.27c.15-.86.22-1.82.42-2.62-1.59-.7-3.18-1.37-4.77-2.02-3.6-1.48-7.21-2.81-10.82-3.82l-.12-.04c-.35,1.53-2.24,2.7-2.88,4.17-1.38.02-2.76.05-4.15.07-.76-2.32,3.9-2.72,2.11-5.41-1.24-.24-2.47-.43-3.71-.57-2.99-.35-5.98-.4-8.98-.05-12.95,1.48-24.25,10.08-35.53,18.67-3.78,2.87-7.56,5.74-11.33,8.27-4.78,5.61-9.44,11.8-13.98,18.56,11.46-2.51,21.7-10.29,31.92-18.07,10.11-7.68,20.19-15.36,30.18-16.5l.06-.02Zm65.78,11.99c.13-.13.25-.26.38-.4.69,1.83,1.13,3,1.8,4.79-.89-.52-1.54.14-2.18.46-.53.26-1.07.27-1.72-.8-1.27-2.08.31-2.69,1.72-4.05Zm-7.95.12l.29-.11c.05.19.18.43.11.57-.05.09-.23.13-.41.17-.05,0-.1.02-.15.03-.09-.17-.19-.34-.27-.5l.43-.15h0Zm-.04,2.43l.04.13c.05.15.11.3.06.4-.02.02-.03.04-.06.06-.11.06-.31.08-.46.13-.09-.16-.17-.32-.26-.48.23-.08.45-.16.68-.24Zm-14.15-9.85l.14.06c.6.25,1.16.6.65,1.29-.19.26-.42.43-.65.45-.3.04-.62-.15-.85-.63.24-.39.48-.78.71-1.17Zm-1.18,3.68c1.38,1.34.4,2.77.12,4.16l-2.27-.44-.21-.04.21-1.61.21-1.61h-.02v-.02h.02c.65-.15,1.07-1.3,1.94-.45h0Zm-6.72-2.64c2.22.11,3.74.91,4.58,2.66.07.14.13.28.19.43h-.19l-4.81-.3c-.66-.87-.16-1.79.23-2.78h0Zm-1.39-3.15c.2.05.46.21.82.53-.15.51-.42.81-.82.9-.23.06-.5.03-.82-.05.17-.64.19-1.53.82-1.37h0Zm-1.67,1.51l.85-.13-.85.99-.24.28c-.2-.34-.4-.67-.6-1l.85-.13h-.01Zm-5.38-8.05l.6-.59c.86,1.01.36,1.94-.08,2.88-.2.03-.37.03-.51,0-.65-.1-.86-.69-1.07-1.26l1.07-1.04h-.01Zm-11.34,2.46c.21.04.38.1.52.18.49.27.6.78.54,1.39-.09.19-.18.38-.27.58-.1-.05-.19-.1-.27-.16-.67-.49-.57-1.25-.52-1.98h0Zm-8.22-1.36l.25-.07c-.02.15-.05.29-.09.43l-.15-.11-.24-.19.24-.06h-.01Z"/>
        <path class="cls-1" d="m160.2,54.9c11.72,5.26,23.44,10.53,35.17,10.37-5.96-5.56-11.91-10.53-17.84-14.92-4.24-1.61-8.56-3.55-12.88-5.48-11.07-4.97-22.13-9.94-33.2-10.35l-.56,3.6c-.93,1.61,2.05,1.39,1.46,2.84l-.08.03c-5.01.8-5.83,1.41-3.85,4.54,9.66-.56,20.7,4.4,31.76,9.36h.02Z"/>
        <polygon class="cls-1" points="305.27 38.7 305.27 38.7 305.29 38.68 305.27 38.7"/>
        <path class="cls-1" d="m344.13,47.57c-.13.04-.25.09-.38.14.15-.02.27-.08.38-.14Z"/>
        <path class="cls-1" d="m25.51,72.07c3.9,1.74,7.8,3.41,11.7,4.85,1.43-2.31,3.88-4.51,2.89-7.21l1.94,3.16,2.02,3.29c-.97.91-1.3-.67-2.02-.48-.17.04-.36.18-.58.47-.67.9-.34,1.03.24,1.7.14.16.26.33.34.48.04.08.08.17.1.25.96.29,1.91.56,2.86.81l.91.23c-.9-1.6-1.53-2.94.41-3.29.38-.07.85-.11,1.44-.1l-1.44,2.7-.38.7.38.09c3.41.81,6.82,1.3,10.24,1.36l.06-.12c.35.04.71.08,1.06.12,1.21-.02,2.43-.09,3.64-.23,5.91-.68,11.47-2.83,16.85-5.79.67-.37,1.34-.76,2.01-1.15-.35-.24-.77-.42-1.31-.54,1.98-1.99.07-4.35.95-6.45.24-.58.44-1.19.64-1.74.53-1.42,1.12-2.38,2.64-.9.35.34.74.79,1.2,1.4.91-2.02-.06-3.02-1.2-3.91-.37-.29-.75-.56-1.1-.86h-.06v-.03c-.56-.05-1.03-.15-1.33-.35l-.15.11c-.46.32-.92.63-1.38.94-.07.49-.11,1.01-.1,1.55-.15-.45-.24-.88-.29-1.29l-.51.34c-6.05,3.99-12.09,7.04-18.1,7.73-4.33.5-8.95-.2-13.75-1.56-.44-.12-.88-.25-1.32-.39-.98-.3-1.97-.63-2.97-.98-4.95-1.74-10.03-4.02-15.11-6.3l-.49-.22c-.32.38-.63.77-.94,1.16-2.03,2.54-3.96,5.16-5.77,7.88l2.72,1.21,3.05,1.37h.01Zm54.86-10.15l.1-.04.36-.16c-.1.12-.21.25-.31.38l-.05.02-.36.15c.09-.12.17-.23.26-.34h0Zm-2.19,5.28s.09-.02.14-.02c.14,0,.43.27.4.35-.05.21-.23.38-.54.81l-.06.08c-.24-.48-.36-.74-.49-.99.18-.07.37-.18.55-.23Zm-31.92,6.76s.05-.01.07,0c.11.01.29.13.44.19-.13.18-.2.43-.35.48-.03,0-.05.01-.09,0-.13-.02-.3-.15-.44-.22.12-.16.21-.38.37-.46h0Zm-1.32-1.11l.08.04.16.08c-.02.07-.02.17-.06.2-.03.02-.06.02-.1.03h-.16c.03-.12.05-.23.08-.34h0Zm-2.89-4.51c1.07.02.62,1.26,1.03,2.52l-1.03-1.16-1.03-1.17c.45-.14.78-.2,1.03-.19Zm-16.53-.1c1.13.6,2.13,1.26,2.78,2.38-.78.41-1.5.79-2.09,1.1.02-.5-.27-.85-.69-1.18-1.1-.85-3.1-1.47-2.78-3.79.93.57,1.9,1.01,2.78,1.48h0Z"/>
        <path class="cls-1" d="m83.11,67.86c-.77.06-1.61.59-2.64,1.54l-.11.1h.11c1.17,0,2.01.19,2.64.53.58.31.97.73,1.26,1.23.63-.41,1.25-.84,1.88-1.27-.39-.4-.82-.79-1.21-1.21-.64-.69-1.26-.98-1.93-.92Z"/>
        <path class="cls-1" d="m82.02,60.9c.36.03.73.11,1.1.15.97.09,2-.12,3.09-2.24l-1.03,8.3c.73-.48,1.17-.77,1.6-1.06l.3-.19.03-.03-.03.03-.27.22c-.05.5.07.83.27,1.03.37.37,1.04.29,1.47.08,1.52-.72,3-1.53,4.54-2.38h0l.21-.12.89-.5,2.7-2.04.25-.19.4-.31c0-.24.05-.5.14-.79h-.02v-.03c-.2-.07-.37-.13-.53-.21-.61-.32-.86-.77-.18-1.57l.18.06c.95.33.43,1.13.53,1.73,0,0,.01,0,.02,0v.02c.27.02.52.06.74.11,1.75-1.33,3.51-2.66,5.26-3.94l-.31-.04c-.17-.93-.37-2.07-.62-3.43,1.83-.02,3.56-.04,5.3-.06l.03.44c.61-.41,1.21-.81,1.82-1.2,4.51-2.89,9.01-5.22,13.5-6.4.18-1.82.44-3.82-4.37-3.72,4.68-1.37,3.82-3.87,4.07-5.93l-.12-1.54c-4.53.89-8.87,2.61-13.08,4.84-4.36,2.31-8.59,5.17-12.77,8.23-1.28.94-2.56,1.9-3.84,2.86l-.21.16h0l-2.83,2.15c-1.06.81-2.12,1.61-3.18,2.41-1.32.99-2.64,1.97-3.96,2.93-.51.37-1.03.74-1.54,1.1l.38,1.02h.03l.03.03h.01Zm28.27-9.05l-.37-.03h-.03l.03-.56.12-1.79c.19-.02.37-.03.56-.05l-.3,2.43h0Zm-.37-10.36l.2-.09c0,.19.02.38-.02.57-.01.05-.1.1-.18.14l-.06.03c-.05-.18-.1-.36-.15-.56,0,0,.21-.09.21-.09Zm0,2.96c1.21-.45,2.28-1.02,3.59-1.09-.91-.98-1.66-1.79-2.4-2.59,1.8.98,2.06-1.38,4.12-1.35-1.31,2.49.59,5.13-1.6,7.48-.45-.76-.9-1.51-1.54-2.59-.61,1.06-1.3,1.72-2.17,1.96-1.28.35-2.95-.2-5.34-1.64,2.37.7,3.95.33,5.34-.18Zm-16.41,10.01l-.2.1-.06.03c-.05-.27-.1-.54-.14-.81l.2.34s.2.34.2.34Zm-.42-.73h0v.04h0v-.04Zm-2.24,5.66c.67.34,1.59.47,2.24.88h0c.07.05.14.1.21.15.56.46.81,1.21.3,2.7l-.3-.17-.21-.12h0c-1.52-.9-2.89-1.65-4.22.28-1.29-2.63,1.45-2.53,1.98-3.71h0Zm-3.82,1.71l.05.04.1.09-.1.02-.1.02.05-.18h0Z"/>
        <polygon class="cls-1" points="16.49 95.61 15.94 94.47 15.67 96.64 16.49 96.97 17.26 97.29 17.32 97.32 17.26 97.19 16.49 95.61"/>
        <path class="cls-1" d="m95.54,94.69c-.14.18-.27.36-.37.54-.32.55-.43,1.05-.37,1.53l.37-.27c1.74-1.29,3.47-2.6,5.2-3.92,1.38-1.05,2.75-2.1,4.14-3.14-.45-.82-.74-1.71-.8-2.76-.1-2.01-1.43-2.01-2.92-1.18.57,1.25,1.14,2.5,1.86,4.07-1.42-.73-2.67,1.54-4.02-.27-.34-.46-.28-1.32-1.29-.56-.8.6-.79.87-.3,1.76.96,1.74.34,3.24-1.5,4.19h0Z"/>
        <path class="cls-1" d="m110.06,83.02c.53.11,1.12.18,1.77.24-.81-.94-1.23-2.03-1.77-2.92-.6-1-1.33-1.77-2.9-1.85-.33-1.44-2.51-1.18-3.43-2.08-1.4.98-2.79,1.98-4.18,3.01-.26.43-.24.86.72,1.31,1.58.74,3.45,1.02,4.9-.3.68-.62.77-1.81,2-1.95-.93,2.92.34,4.03,2.9,4.53h-.01Z"/>
        <path class="cls-1" d="m11.42,95l1.31.48,1.31.5c-.1-.53-.41-.94-1.31-1.03-.34-.03-.77-.03-1.31.04h0Z"/>
        <path class="cls-1" d="m93.66,92.73c-.12.01-.25.03-.39.05l.39.33,1.52,1.26.35.3c.07-.7.04-1.31-.35-1.66-.29-.25-.76-.37-1.52-.29h0Z"/>
        <path class="cls-1" d="m119.19,67.74c-3.11,1.22-6.15,2.79-9.13,4.57-.59.35-1.18.71-1.77,1.08.72.45,1.3,1,1.77,1.61,1.76,2.29,2.04,5.52,3.03,8.37,2.59-1.68,5.18-3.17,7.76-4.37l.13-.71c.45,0,.92-.02,1.36.05,1.03-.43,2.06-.81,3.08-1.14-.41-.43-1.06-.87-1.96-1.37-2.85-1.58-4.52-4.62-4.27-8.1h0Z"/>
        <path class="cls-1" d="m12.73,94.31c1.49-.5,2.7-.63,3.77-.4.26.06.52.13.77.23.69.28,1.32.72,1.96,1.32l-1.79,1.9c2.22.93,4.46,1.92,6.69,2.92l1.82.82c5.42,2.43,10.83,4.85,16.25,6.75.61.21,1.22.42,1.83.62.32-1.26.71-2.53-1.74-2.68v.02l-.08.09-.08.1.08-.12.06-.09h.03c1.42-2.97,3.63-3.36,7.52-2.1.47.15.95.32,1.47.52-.54-.02-1.03-.01-1.47.03-3.55.3-4.02,2.39-4.58,4.61l.73.22c1.34-.24,2.71-.52,3.85.46.22.19.43.42.63.72,1.37.31,2.74.57,4.1.77,3.43.5,6.86.61,10.29.22,7.1-.81,13.7-3.77,20.07-7.68-.25-1.15-.33-2.63-2.82-1.8,2.84-2.31,7.45.77,8.62-3.22.62-2.11-1.58-3.74-3.85-4.89.7-.38,1.23-.67,2.07-1.13-2.32-.46-1.74-1.9-1.53-3.6,2.09,3.37,3.38.07,5.15-.2.17.62.33,1.2.51,1.84.26-.44.47-.85.62-1.23.57-1.36.48-2.31,0-3.03-.35-.52-.9-.92-1.55-1.26-9.55,7.24-19.08,14.16-28.54,15.25-2.04.23-4.16.2-6.32-.04l-.91,2.72-1.8-.8-1.18-.53,1.18-.98.81-.67-.81-.14c-.75-.14-1.5-.3-2.25-.48.67,2.31-.47,5.1,2.25,6.62q1.81,1.01,0,0h0v.02h0c-.32.69.1,2.42-1.69,1-.73-.57-2.49.1-1.73-2.05.45-1.29,1.49-3.5-1.3-4.21l-.28-.07.28-.23,1.53-1.29c-.51-.13-1.02-.27-1.53-.41-2.5-.71-5.03-1.6-7.6-2.61-3.88-1.52-7.83-3.29-11.77-5.06-2.1-.95-4.2-1.89-6.3-2.8-2.29-.99-4.58-1.95-6.87-2.83l-.77-.29c-1.26-.47-2.51-.92-3.77-1.34l-1.03-.34c-1.61,3.31-3.07,6.7-4.37,10.17,1.27.38,2.56.8,3.85,1.26.55-.25,1.06-.45,1.55-.61h-.03Zm37.08,13.97h0c-.05-.12-.1-.2-.09-.26,0-.04.05-.07.09-.1l.08-.07c-.02.13-.05.27-.08.43Zm-25.68-17.4c.59.71.54,1.16,0,1.71-.09.09-.2.19-.32.29-.04-.89-.06-1.44-.11-2.44.16.16.31.31.42.45h.01Zm-6.93,1.54s.04,0,.06.02c.05.02.11.05.16.08-.03.06-.07.17-.1.17h-.06c-.06-.03-.11-.07-.17-.1.04-.06.07-.17.1-.16h.01Z"/>
        <path class="cls-1" d="m327.78,67.82l-.19-.04-.19-.05c.06.03.13.05.19.06.06.02.12.02.19.03Z"/>
        <path class="cls-1" d="m232.44,67.44c.18-.11.31-.28.41-.47l-.41.31-.41.31c.16-.03.3-.08.41-.16h0Z"/>
        <path class="cls-1" d="m346.61,66.71c-2.47.99-4.94,1.69-7.4,1.99l-.2.02c-2.91.33-5.95.13-9.09-.46-.58.49-1.32.88-2.32,1.11-.37.08-.77.14-1.21.18.38.59.8,1.18,1.21,1.76,1.72,2.48,3.25,4.95.91,7.88,3.57.62,7.14.86,10.7.57.35-.03.7-.07,1.05-.11,2.16-.25,4.28-.69,6.35-1.3,1.2-.35,2.38-.76,3.55-1.22-.12-.17-.25-.33-.4-.49.41.08.8.14,1.17.19,8.7-3.55,16.79-9.7,24.89-15.84,3.6-2.74,7.2-5.48,10.8-7.93l-2.5-4.97c.78-1.43,1.98-.5,2.84-.86.24.09.48.18.72.27-1.42,1.8-1.34,3.33.39,4.6,1.4-.92,2.81-1.79,4.21-2.58-2.06-3.08-4.24-6.06-6.56-8.92-5.63,3.35-11.08,7.49-16.52,11.64-7.53,5.73-15.08,11.46-22.58,14.47h-.01Zm-6.82,9.94c-.21.07-.41.11-.58.11-1.13.05-1.51-1.07-1.93-2.34l1.93-.55,1.51-.43c.67,1.48.64,2.72-.93,3.21h0Zm6.82-.52c-.67-.3-1.14-.82-1.09-1.59.05-.73.55-.71,1.09-.58.25.06.51.15.73.19.12.75.23,1.5.35,2.26-.39-.05-.76-.14-1.08-.29h0Z"/>
        <path class="cls-1" d="m127.6,70.74c.35.64.77,1.17,1.65.87.5.27,1,.53,1.5.79l-1.36,3.83c.39-.06.79-.12,1.18-.16,9.99-1.15,21.54,4.04,33.13,9.24,12.94,5.8,25.9,11.63,38.85,10.14,9.29-1.07,17.73-5.79,25.92-11.55l-.53-2.37c.09-.42.18-.85.27-1.27,2.13.46,2.46,1.23,2.13,2.31.71-.51,1.42-1.02,2.12-1.55,1.88-1.39,3.76-2.82,5.64-4.25,10.11-7.68,20.19-15.35,30.18-16.5,8.66-.99,18.49,2.76,28.48,7.16h0c.31-.26.66-.45,1.32-.88-.13.55-.16,1.02-.11,1.42,1.14.51,2.29,1.02,3.43,1.54,1.38.62,2.76,1.24,4.15,1.85l.11-.21.32.4c.94.41,1.88.82,2.81,1.22,2.45,1.05,4.89,2.04,7.33,2.95.37-1.19.35-2.29-2.17-2.57.58-.79,1.16-1.58,1.74-2.38.78-.49,2-.61,1.77-1.94-.21-1.22-1.1-.7-1.81-.65-1.04-1.79,1.06-2.54,1.45-3.86-2.75-1.09-5.53-2.3-8.32-3.54l-2.92-1.31c-12.95-5.83-25.89-11.63-38.86-10.14-11.89,1.36-22.39,8.71-32.76,16.56l.75,2.74c-.61,1.04-1.56,1.45-2.56,1.44-.35,0-.7-.06-1.05-.16-.64-.18-.81-.67-.83-1.22-9.81,7.44-19.59,14.69-29.29,15.8-9.99,1.15-21.56-4.04-33.14-9.23-12.95-5.83-25.89-11.63-38.84-10.14-1.16.13-2.31.33-3.45.57.23.44.45.88.58,1.31-1.31,1.71-.92,2.95,1.15,3.72l.04.02Zm180.31-.56c.1.1.21.19.32.29l-.03.02.03-.02.56.11,1.48.28c-.22.68-.45,1.35-.73,2.21l-.75-.58-1.48-1.14c.27-.27.54-.53.8-.79l-.2-.37h0Z"/>
        <path class="cls-1" d="m318.99,68.58c3.82,2.59.98,5.37,0,8.15.7.23,1.39.46,2.09.67.94-.45,2.38.08,3.43-.14l-.43.98c.5.13,1,.25,1.51.37l.08-.99c.28-.3.54-.59.82-.89-.43.22-.85.44-1.28.65-.23-.04-.45-.09-.66-.15.14-.93-.52-2.39,1.09-2.47,1.18-.05.97,1.11.88,1.93.43-.02.79-.12,1.07-.29.5-.3.76-.83.85-1.58-.32-.11-.6-.23-.85-.36-3.09-1.59-1.78-4.49-2.36-7.33l-1.09-.32c-.08.1-.15.21-.2.33l-.18-.45c-1.56-.48-3.14-1.04-4.73-1.63.36.71,1.01,1.2,2.37,1.16-1.23.76-2.32.98-2.42,2.34v.02Z"/>
        <path class="cls-1" d="m122.14,98.36c-1.04.42-2.07.88-3.09,1.38.44.29,1.02.54,1.77.75.2,1.94,1.63,2.23,3.5,2.1-.15,2.92-1.69,4.39-4.37,4.94l-3.32-1.05v.02h-.03v-.03h.03c.25-.66,1.46-1.67-.22-1.8-.64-.05-1.03.19-1.23.57-.22.42-.2,1.02-.03,1.61-.78-1.41-2.19-2.18-3.67-2.87-1.86,1.18-3.69,2.44-5.52,3.74-.55.39-1.11.78-1.66,1.18.38,1.32.96,2.71,1.65,4.17-1.48-.85-2.68-1.74-3.7-2.65l-.96.72c.49.35.98,1.07,1.64,2.15l-2.58-1.44-.61.46-2.5,1.9c-1.19.9-2.37,1.8-3.56,2.69.17.37.35.74.55,1.09-1.36.98-2.07,2.04-2.38,3.14-.3,1.04-.23,2.12,0,3.22.37,1.78,1.18,3.62,1.59,5.43l.16.75c2.06-1.43,4.11-2.92,6.14-4.45,1.38-1.03,2.75-2.08,4.12-3.12l2.1-1.59c1.16-.88,2.32-1.76,3.48-2.62l-1.29-.54c4.33-1.05,4.42-1.07,7.03-6.7l.18-.4.94,2.84c5.93-3.87,11.86-6.8,17.74-7.47,1.99-.23,4.04-.21,6.14.02-.15-.25-.33-.51-.53-.78-2.36-3.16-2.25-6.77-1.98-10.39-1.63-.03-3.26.04-4.89.23-2.13.24-4.22.68-6.26,1.28.22.76.75,1.49,1.41,2.21-.83.76-1.68,1.54-2.45,2.24-.85-.61-1.61-1.15-2.36-1.68-.4-.4-.73-.81-.99-1.24h0Zm-22.4,23.56h0c-.08-.03-.15-.08-.23-.11l.23-.17.08-.06c.05.07.1.14.15.21l-.23.13Zm4.69-.43c-1.65-.48-3.08-.9-4.51-1.32l-.18.13-.14.09.14-.12.15-.14c-.05-.09-.09-.17-.15-.26-.8-1.29-2.5-2.43-1.22-4.14.34-.45.76-.81,1.22-1.06.9-.48,1.97-.52,2.99.1,2.74,1.69,1.7,4.31,1.71,6.71h0Zm1.57-3.03h-.04c-.05,0-.12-.06-.18-.08l.18-.27.05-.09c.04.08.09.15.13.23-.05.07-.08.17-.14.21Zm9.18-9.04c-.84.94-1.67,1.9-1.28,3.43-2.4-1.08-1.98-2.87-2.04-4.47.91-.96,2.87.49,3.32-1.3l.02-.1h-.02s-.02-.07-.03-.11l.03.05.03.04v.02c.46-.16.93-.32,1.4-.47.1,1.23-.67,2.07-1.42,2.92h-.01Z"/>
        <path class="cls-1" d="m2.55,119.31c-.97,2.09,1.41,1.71,2.78,2.46.41.23.73.56.84,1.1.5.1,1,.21,1.5.33-.14-1.77.35-2.01,1.83-1.36l-1.54,1.43c6.9,1.68,14.19,4.96,21.48,8.22l.21.09c7.33,3.28,14.65,6.56,21.97,8.5.46.12.92.24,1.39.35.62.15,1.23.29,1.85.41,1.6.33,3.2.59,4.8.77.4.04.8.08,1.2.11-.34-.46-.6-.76-.56-1.02.06-.35.62-.62.96-.92.24.3.66.6.68.92,0,.28-.2.57-.48,1.07,2.28.15,4.57.12,6.85-.14,8.39-.96,16.08-4.9,23.54-9.9l.18-.12-.18-.31-3.72-6.34c-2.15.94-3.44.15-4.56-.96-5.52,3.48-11.02,6.07-16.51,6.7-2.38.27-4.85.19-7.39-.18-1.52-.22-3.06-.53-4.62-.92-.07.03-.13.08-.18.12-.39.31-.47.85,0,1.81.37.76,1.08,1.78,2.23,3.16-.64-.66-1.44-1.01-2.23-1.32-.66-.25-1.31-.47-1.85-.81-.86-.54-1.45-1.39-1.32-3.15.02-.27.07-.51.14-.72l-.21-.07c-5.76-1.8-11.73-4.48-17.7-7.16-1.42-.64-2.85-1.28-4.27-1.91-4.17-1.84-8.35-3.61-12.52-5.04-2.16,3.07,2.26,3.24,3.9,4.94-2.43.83-3.86.44-5.13-1.13-1.04-1.29-.73-3.37-4.32-4.36,1.17.13,2.05-.11,2.81-.34-1.95-.6-3.89-1.11-5.83-1.52.67.45,1.39.81,2.25.93-2.14.5-3.9.54-5.46.11-1.14-.32-2.18-.89-3.18-1.71-.14.66-.27,1.32-.4,1.98.47-.06.92.07,1.27.57l-1.49.56c-.38,2.07-.71,4.15-.98,6.25.48-.64,1.11-1.16,1.99-1.5l-.02.02Zm55.88,16.02v.04l1.23,1.15,1.48,1.39c-.61.13-1.1.16-1.48.13-1.43-.14-1.49-1.28-1.23-2.67l-.02-.02c-.08-.06-.15-.12-.23-.18.09.05.17.1.26.16h0Zm-3.58.75c.89.23,1.18.67,1.21,1.43-.58.24-.93.21-1.21,0-.4-.29-.65-.94-1.21-1.62.49.04.89.1,1.21.18h0Zm-1.97-.13l.12.08.14.09-.14-.08-.14-.08v-.02h.02Zm-1.28-.83h0l.02.02h-.02s-.02-.01-.02-.01v-.02h.01Zm-21.96-7.41l.05.02s-.02.01-.02.02l-.03-.02-.05-.04s.05.02.05.02Zm-24.32-9.13s.08-.03.12-.04c.12-.02.42.24.43.39.02.2-.17.41-.34.76l-.22-.21-.55-.54c.18-.12.36-.28.55-.36h.01Z"/>
        <path class="cls-1" d="m145.48,107.13c.14.15.25.27.35.39l.35.09.67.17h.02c-.12-.26-.17-.62-.37-.73-.08-.05-.19-.04-.33-.03-.19.03-.42.08-.69.11h0Z"/>
        <path class="cls-1" d="m352.42,96.09c-.77.36-1.54.7-2.31,1.01l-.17.47-.06-.38c-.96.38-1.92.71-2.88.99.2,1.13.18,2.2-1.05,3.19-.22.41-.44.82-.65,1.23-.64-.27-1.28-.54-1.92-.81l-1.36-1.57-.7-.81c.12-.07.22-.13.33-.2-1.7.13-3.45.1-5.23-.09.34,2.04,1.64,4.33-1.61,5.41h-.03c-.4-.67-.81-1.35-1.21-2.01.04-.44.08-.87.12-1.31,1.01.2,1.46-.24,1.47-1.18.4-.3.49-.65.42-1-3.29-.42-6.71-1.32-10.19-2.5-3.69-1.25-7.46-2.82-11.25-4.49-1.59-.7-3.19-1.42-4.79-2.13-4.42-1.98-8.84-3.97-13.27-5.66-.21.59-.33,1.26-.27,2.06-1.08-1.35-1.96-2.21-2.3-3.01l-1.2-.42c-7.27-2.47-14.54-3.94-21.82-3.11-4.94.57-9.64,2.17-14.19,4.41-1.6.79-3.19,1.66-4.76,2.59l-.05.08h-.07c-5.48,3.26-10.78,7.28-16.08,11.31l-.38.28c-10.11,7.66-20.2,15.34-30.2,16.49-9.99,1.15-21.56-4.05-33.14-9.23-5.43-2.44-10.87-4.87-16.3-6.77-1.02-.36-2.04-.69-3.05-1.01l-.27-.08-.34-.1c-1.83-.55-3.66-1.02-5.49-1.41l-.59-.12c-.36.97-1.37,2.02-.19,3.32.32.35.57.76.78,1.19.77,1.62.88,3.66,1.78,5.38.27.52.64,1.43.76,2.24.97.29,1.96.61,2.95.96v-.11l.02-.11c.08-.29.19-.52.32-.71.08-.11.17-.21.27-.29.71-.57,1.84-.33,3.05,0,.77.21,1.58.45,2.32.52l-.35,2.83c3.27,1.34,6.57,2.81,9.88,4.29,12.95,5.81,25.9,11.62,38.85,10.14,4.53-.52,8.86-1.91,13.06-3.87-.29-2.68,1.51-5.32,1.23-7.88.23-.21.46-.42.7-.64,1.12.55,2.25,1.11,3.37,1.66-1.77,1.72-3.83,3.38-2.85,5.64,4.72-2.46,9.28-5.57,13.8-8.9,2.08-1.53,4.15-3.11,6.23-4.69,4.92-3.73,9.84-7.47,14.74-10.45,4.7-2.86,9.39-5.03,14.05-5.84.08-.22.18-.45.3-.69.4.15.74.32,1.03.5h.06c6.35-.74,13.34,1.1,20.56,3.86,1.79.68,3.59,1.42,5.4,2.2l1.88-.34-.27,1.03c1.85.81,3.71,1.64,5.56,2.48,1.66.75,3.31,1.49,4.97,2.22l.02-.04.14.11c1.35.59,2.69,1.17,4.04,1.73-.02-.47.02-.88.1-1.23.3-1.31,1.27-1.94,2.55-2.41l-2.26,3.8c1.55.65,3.11,1.26,4.66,1.84.05-.22.11-.44.17-.66.31-1.1.45-2.26-.42-3.5-.7-1.01-.34-2.35,1.6-1.99.27,2.79.74,5.44,4.53,5.63.14.67.29,1.34.43,2.01l.13.65c5.5,1.59,11,2.49,16.51,2.12.57-.04,1.14-.09,1.71-.16.49-.06.98-.13,1.47-.2l-.37-.05c-.9-1.64-.48-2.91,1.12-3.85l-.31,3.83c.56-.09,1.11-.2,1.66-.32.72-.92,2.1-1.05,3.68-1.73-2.94-.74-1.86-2.52-1.91-4,.48-.15.96-.31,1.44-.46.28.04.56.08.85.13-.79,1.66.09,2.67,1.05,3.64.23.24.47.47.69.71,9.19-3.44,17.69-9.9,26.19-16.35,1.89-1.44,3.78-2.87,5.66-4.27-.29-.05-.57-.21-.87-.54-.34-.38-.48-1.5-.22-1.69,1.62-1.26,3.59-1.11,5.53-.94,3.27-2.26,6.56-4.28,9.82-5.85,2.08-1,4.16-1.82,6.24-2.4-1.26-3.49-2.68-6.9-4.23-10.23-.67.21-1.34.44-2.01.68-9.36,3.41-17.96,9.96-26.56,16.49-6.75,5.13-13.51,10.28-20.25,13.45h0Zm-197.09,6.16c-1.05-.19-2.06-.15-3.05,1.09-.09.11-.18.24-.27.37-.08.12-.17.25-.25.39l.25-2,.27-2.18.02-.15h-.03s0-.01,0-.02l-.25.13-.34.18-.59.3c.05-.74.1-1.39.59-1.12.1.05.21.13.34.26.08.07.16.15.25.25h.02l.02-.02v.04c1.12,0,2.08.37,3.03.85,1.11.57,2.22,1.31,3.57,1.88-1.25.46-2.43-.03-3.57-.24h0Zm80.01,4.39c-.17,0-.36-.01-.54-.03-.07-.4-.13-.8-.2-1.19.25-.18.51-.34.74-.38.32-.07.58.07.7.67.15.72-.21.92-.7.94h0Zm20.97-16.92c-.34,0-.7-.03-1.02-.05-.18-.75-.36-1.5-.54-2.25.52-.27,1.07-.48,1.57-.53.74-.07,1.35.24,1.54,1.32.22,1.29-.6,1.51-1.54,1.51h-.01Zm36.86-3.5l-.86-.11-.97-.12c0-.1.01-.2.02-.3l.95.04.96.03c-.03.15-.07.31-.1.46Zm20.98,7.66h.01c.19,0,.38.37.61.62l-.62.69-.02.02c-.21-.29-.49-.55-.61-.87-.03-.08.4-.44.63-.45h0Zm0,5.93c-1.27.52-3.14-1.5-3.96.7.66-2.22,2.03-2.72,3.96-1.68.2.11.41.24.63.38-.18.32-.4.51-.63.6Zm11.25-1.26l.57-.34c.03.46.05.92.08,1.38l-.64-.33-.64-.32.64-.39h0Zm.62,4.66c-.19-.09-.4-.16-.62-.23-.67-.21-1.36-.43-1.16-1.3.18-.8.64-.96,1.16-.93.53.03,1.14.24,1.63.16-.03.9.36,1.96-1,2.31h-.01Zm16.01,6.21c-.31.03-.67,0-1,0,.17-.59.54-.89,1-1.05.3-.11.64-.16,1-.19.02.94-.42,1.19-1,1.24Zm10.38-7.83l-.34.63c-.22-.74-.44-1.48-.66-2.21.29-.22.56-.44.84-.66l.16.05,1,.33-1,1.86Zm46.82-32.1l.38-.13c1.41,1.11.59,1.8-.38,2.46l-.11.07c-.28-.02-.56-.04-.84-.06-.06-.66-.13-1.31-.19-1.97l1.14-.37h0Z"/>
        <polygon class="cls-1" points="30.09 148.63 30.09 150.13 30.33 150.18 31.37 150.4 32.66 150.67 32.25 149.57 31.37 149.19 30.33 148.74 30.09 148.63"/>
        <path class="cls-1" d="m.69,143.69c.18-.07.4-.19.69-.29-.31-.21-.5-.39-.69-.48-.05-.03-.11-.05-.16-.06-.16-.03-.54.2-.53.26.04.23.19.61.34.63.11,0,.22,0,.35-.06h0Z"/>
        <path class="cls-1" d="m13.97,151.24c3.48.6,3.49,2.24,3.09,4.1,4.35,1.49,8.81,3.41,13.28,5.41l1.04.47,1.55.69,1.03.46c.06-.95,1-1.87.86-2.93,2.29.48.45,2.62,1.76,3.36v-.02h.04s0,.03,0,.03h0l-.02-.02c-.13.19-.28.37-.45.53l.46.21.75.34c.8.35,1.59.7,2.39,1.04,1.19.51,2.38,1.01,3.57,1.5l.09.04,1.01.41c.15-.47.56-.97,1.33-1.53l.09-.07-.09-.08-.11-.1.11.08.11.08s-.02,0-.02,0c.68.09,1.35.17,2.03.25l-.02-.02.1-.1.1-.1-.1.14-.07.09h0l.08.15c.5,1,.98,1.99,1.1,2.95l.36.13c1.37.48,2.74.92,4.11,1.32.59.17,1.19.34,1.78.49l-.91-1.63c1.71-.93,2.62.3,3.9.65.1.03.2.05.3.06-.11.15-.21.3-.3.45-.25.38-.49.73-.75,1.02l.75.16c.76.16,1.52.3,2.28.43,3.74.61,7.48.8,11.22.37,11.83-1.36,22.28-8.64,32.61-16.43l2.09-1.59.85-.65c2.37-1.8,4.74-3.61,7.12-5.33.64-.47,1.29-.93,1.94-1.38l.49-.35c-.61-.96.37-1.14,1.01-1.17.17,0,.37.02.58.08.74-.5,1.48-.98,2.22-1.45-.69-.72-.74-1.79-.75-2.89,1.59-.48,2.89-.45,3.22,1.39.86-.5,1.71-.98,2.57-1.43l.16-.7h.06c1.15-.28,1.65-1.07,1.78-2.15.74,0,1.48,0,2.23.02-.16.34-.29.69-.39,1.04,2.67-1.1,5.32-1.86,7.97-2.17,4.53-.52,9.38.27,14.41,1.76l.78.24c.06-.14.16-.28.29-.43,1.66-1.84,1.8-4.13,2.25-6.37.27-1.31,1.11-1.37,2.01-.35.37.51.73,1.03,1.1,1.55-.93,1.1-1.86,2.21-2.78,3.3,1.07,1.13,1.32,2.43,1.43,3.77,2.68,1,5.4,2.13,8.14,3.32l.35.15c.93-.4,1.62-1.22,1.81-2.93.54.1,1.07.21,1.61.31.57.93,1.13,1.85,1.7,2.77-1.2.25-1.58.77-1.63,1.39l1.67.75,2.76,1.23v-.02c.21-.27.4-.53.6-.8,2.11-.23,2,.79,1.78,1.88l1.79.78.08-.72.07.03,1.78.91c-.1.2-.21.35-.32.46,9.59,4.04,19.19,7.21,28.78,6.53.55-2.77-.31-5.92,2.27-8.15,1.39-.25,2.3.5,3.27,1.51-.96,1.24-2.68,2.53-.4,4.08.18.35.35.7.53,1.05l-.03.06c-.08.23-.2.45-.32.67,6.45-1.44,12.51-4.55,18.4-8.37.73-.48,1.47-.97,2.19-1.46l1.02-.7c3.26-2.27,6.48-4.71,9.69-7.16l.07-.35h.39l1.88-1.43c.13-2.1.07-4.15-3-5.21.95-1.15,1.74-2.09,2.53-3.05.87.79.99,2.39,2.67,2.31,0,1.64.76,2.41,2.05,2.56l.25.02c5.7-4.17,11.4-7.9,17.06-10.01-.23-.33-.44-.79-.64-1.41,1.66-1.12,3.32-1.3,5,0,.02.04.03.08.04.11.77-.16,1.54-.29,2.31-.38,10-1.15,21.58,4.04,33.14,9.23,8.04,3.61,16.09,7.22,24.14,9.08.68.16,1.36.3,2.04.43.57.11,1.15.21,1.72.3.49.08.98.15,1.48.21,2.15.27,4.3.39,6.44.33-.09-.27-.1-.61-.03-1.07.31-1.92,2.34-1.77,3.55-1.66,1.79.17,1.82,1.15,1.66,2.2,12.06-2.13,22.73-10.25,33.42-18.35,1.52-1.16,3.05-2.32,4.57-3.46l-.86-1.41c-1.71-.38-3.53-.66-3.05-3.06.45.26.9.51,1.34.77,3.35,1.86,2.85-1.76,4.22-2.72,1.03.28,1.45-.42,1.91-1.08l3.12.39c-.56.83.19,1.98-1.18,2.22.14.24.3.43.48.58,6.26-4.28,12.52-7.67,18.75-8.62-.34-3.68-.86-7.31-1.53-10.89-12.5,1.85-23.45,10.17-34.4,18.5-9.73,7.41-19.48,14.82-29.14,16.36-.42.98-.84,1.97-1.22,2.95.47-1.16-.16-1.84-.82-2.72-.56.04-1.12.06-1.69.07-.35,1.92.68,3.15,1.96,4.33-.59,2.26-2.32,3.4-4.43,4.17-.27-1.66-1.86-3.56.93-4.71-.94-2.01-2.61-.95-3.99-.97-.13,0-.26-.02-.39-.05l.39-3.13v-.1h0c-.49-.08-.98-.17-1.48-.27-.57-.11-1.15-.24-1.72-.38-.68-.16-1.36-.34-2.04-.53-6.35-1.78-13.01-4.77-19.67-7.76-3.05-1.37-6.11-2.75-9.17-4.02-1.75,1.18-4.36.14-6.15,1.38-.62.43-1.94-.08-2.93-.16.04-1.37,2.63-1.41,1.64-3.24-.89-1.63-2.04-1.63-3.56-.84-.82.43-1.55-.09-1.79-.95-.07-.25-.11-.5-.11-.74-5.59-1.49-11.19-2.21-16.79-1.56-4,.46-7.85,1.59-11.58,3.19.99.16,2.11.05,2.76,1.27-1.09,2.04-2.6,1.17-4.07.47l.58-1.42c-3.57,1.6-7.04,3.62-10.45,5.86-4.31,2.84-8.54,6.06-12.77,9.28l-.64.49.76.82c-.34,1.84-3.21,3.23-.83,5.33-1.02,1.23-1.74.16-2.52.05-.08-.19-.18-.36-.29-.53-.28-.43-.64-.81-1.02-1.18-.3-.29-.62-.57-.93-.86l-1.26.93c-1.11.81-2.23,1.6-3.34,2.36l.76.21c-.79.67-1.32,1.11-1.84,1.55-.22-.21-.43-.43-.58-.64-2.04,1.36-4.08,2.61-6.12,3.7-.25.46-.76.6-1.27.66-2.01,1.02-4.03,1.87-6.04,2.5.06.22.12.46.16.71-1.24,1.53-2.14.8-3.05.05-.71.14-1.43.26-2.14.35-9.24,1.06-19.82-3.3-30.52-8.07l-2.62-1.17c-1.5-.67-3-1.35-4.5-2.01l1.24,1.54c-1.14.41-.4,1.21-.41,1.86-.65.02-1.31.05-1.96.07-2.05-1.89-.28-2.63,1.08-3.49-1.8-.8-3.59-1.57-5.4-2.31-4.41-1.81-8.81-3.41-13.22-4.5-5.22-1.29-10.44-1.88-15.66-1.28-1.08.12-2.15.29-3.2.51l.11,1.65c-1.46.95-2.91-.08-4.36-.53-.97.31-1.93.67-2.88,1.05-1.31.52-2.62,1.1-3.91,1.74.98.95.93,2.17.83,3.4-.24,1.12-.49,2.25-.73,3.37-.79-.03-1.57-.06-2.36-.09l.73-5.89c-1.38.73-2.74,1.51-4.1,2.34-.65.4-1.29.8-1.94,1.21-2.69,1.73-5.33,3.61-7.97,5.56l-2.09,1.56c-1.23.93-2.46,1.85-3.69,2.79-10.09,7.68-20.18,15.36-30.18,16.5-3.18.37-6.52.09-9.96-.62-.76-.16-1.52-.34-2.28-.53-1.57-.4-3.17-.89-4.77-1.43-.78-.26-1.56-.54-2.34-.83.08.51-.18,1.01-1.17,1.51h0s0,0,0,0c-.34.52-.35,1.42-.6,2.09-.21.57-.58.98-1.46.85-.4-.06-.92-.23-1.57-.55,1.15-.2,1.3-1.08,1.57-1.85.22-.62.51-1.18,1.46-1.26h0l.08-1.43-.09-.04-1.46-.58c-.73-.29-1.47-.6-2.2-.91-.78-.33-1.56-.66-2.35-1l-.09-.04c-1.19-.52-2.38-1.04-3.57-1.58l-2.33-1.05-.06-.03-.75-.34c-1.31-.59-2.63-1.18-3.94-1.76l.06.94c.35.07.69.14,1.04.22-.99,1.81-1.7,3-2.37,3.61-.34.31-.68.46-1.04.47-.88.02-1.92-.85-3.58-2.52,1.85.63,2.56.87,3.38,1.14-.25-2.01-3.43-3.77-2-5.79-7.66-3.19-15.33-5.78-23.01-6.23l-.61,1.13-1.3-1.19h-.02l-.34,2.75c1.09.33,2.16-1.1,3.22.27-1.32,1.04-2.66,2.1-4.24,3.35-.33-.65-.71-1.08-1.14-1.35-.22-.14-.45-.23-.69-.29.15,1.83.34,3.67.58,5.51l.11.08c.4.29.87.51,1.47.68,4.23-.08,8.7.83,13.3,2.29.18-1.2.16-2.4-1.49-3.58h-.06Zm323.2-17.48l.58.3,1.23.64c-.53.26-.92.34-1.23.29-.64-.09-.94-.69-1.23-1.26.22-.04.44-.04.66.02h0Zm.38,6.26l-1.28-.36-1.28-.37c.49-.49.9-.76,1.28-.73.44.03.84.47,1.28,1.47h0Zm-3.15-10.58l.15.05c2.77.93.21,2.17.1,3.28l-.1-.04c-2.51-.95-.66-2.16-.15-3.29h0Zm-1.89,6.24c1.07.24,1.43.57.62,2.12l-.62-.86-1.05-1.47c.4.08.75.14,1.05.21Zm-81.77-15.72l.48.33c2.38,1.66,3.77,3.14,1.57,5.62l-1.57.07-2.65.1c.53-2.01,2.73-3.33,2.18-6.12h0Zm-15.81,20.5l1.07-.22-.3,2.43c-.3.05-.55.07-.77.06-.61-.04-.91-.33-1.02-.76-.07-.28-.06-.62,0-1,.02-.1.03-.21.05-.31l.97-.19h0Zm-3.22-2.71c1.11.76,1.91,1.44,2.19,2.66l.05.24h-.05l-1.86.47-.34-.64-2.24-4.27c.83.61,1.59,1.09,2.24,1.53h0Zm-53.98,9.82c.1-.02.22-.04.37-.05-.12.3-.23.59-.35.89h0c-.51-.48-.48-.75,0-.85h0Zm-13.62-10.99c-.02.22-.04.44-.07.66.39.03.77.09,1.12.18.99.26,1.81.79,2.4,1.74-1.04.11-1.75-.34-2.4-.9-.38-.32-.73-.68-1.12-.99h0c-.43-.27-.86-.55-1.28-.83.45.04.9.09,1.35.13h0Zm-12.17-9.31c.49.09.85.35.9,1.09l-.9-.57-.89-.56c.31,0,.62,0,.89.04Zm-26.81,4.02c.21.19.43.38.64.57h.17l1.01.02-1.01.52-.25.12c.02-.22.05-.44.07-.66-.28-.12-.55-.24-.83-.36.07-.07.13-.14.2-.22h0Zm-10.44,13.29c-.05.02-.13.02-.22,0-.22-.06-.51-.24-.55-.38-.19-.68.09-1.01.55-1.2.21-.09.45-.15.7-.21.45.78.35,1.42-.48,1.8Zm1.71-8.1c.13-.02.27,0,.45.02.21.04.51.53.46.74-.14.66-.5.74-.91.7-.3-.03-.63-.14-.92-.13.15-.59.26-1.25.92-1.32h0Zm-1.94,1.16l.99.17c-.31.29-.62.47-.99.38-.29-.07-.61-.29-1-.73l1,.18Zm-7.97,3.29l.09-.02-.04.15-.05-.04-.09-.07.09-.02h0Zm-2.15,1.01l.05.04.09.08-.09.02-.1.02.04-.15h0Zm-44.99,19.27l1.21.15,1.25.16c-.04.09-.07.17-.1.27l-1.15-.14-1.25-.16c0-.09.03-.18.04-.28Zm-5.85-1.28s.1.06.15.1c1.29.94,4.01.99,4.62,2.72.15.44.17.98,0,1.67-.03.12-.07.25-.11.38h.02l.09.07.12.09-.12-.08-.12-.08v-.02c-1.65-.22-3.08-1.09-4.66-1.66-.91-.32-1.86-.55-2.93-.49,1.62-.51,1.74-3.36,2.93-2.72v.02Zm-4.11,3.43l4.11,1.87,2.93,1.32c-1.12.28-2.07.41-2.93.33-1.6-.14-2.84-.99-4.11-2.93-.16-.26-.34-.53-.51-.82l.51.23Zm-3.66-5.59c.59.56.85,1,.57,1.77-.22-.04-.41-.1-.57-.19-.71-.4-.9-1.31-1.53-2.96.61.59,1.14,1.01,1.53,1.38Zm-2.35,2.47h0c1.67-.42.21,1.66,0,2.7v.03h0s0,.02,0,.03c1.6,1.26,1.02,1.89,0,2.37l-.09.05c-.34.15-.72.29-1.08.44l1.08-2.62.09-.23h-.02v-.04l-.09-.06c-1.18-.76-2.37-.29-3.57.07-.8.24-1.6.44-2.39.2-.24-.08-.49-.2-.73-.37.2-.45.45-.8.73-1.08.65-.66,1.5-.95,2.39-1.1,1.2-.19,2.5-.13,3.57-.37l.09-.02h.02Zm-3.66-1l.03.02c.08.1.15.2.22.31-.05-.02-.14-.03-.17-.07-.04-.06-.05-.15-.07-.23h-.02l-.25-.17.25.16v-.02Zm-2.45.21l.06.03.17.08c-.04.08-.09.17-.13.26l-.04-.02c-.08-.03-.18-.07-.18-.09,0-.1.08-.18.12-.26Zm-7.27-3.12l.33.67.19.38c.17.26.34.52.51.79h0c.08.06.17.12.25.18l-.28-.16h0c-.22-.22-.43-.45-.65-.67h0l-.94-.73c.21-.15.41-.31.61-.46h-.02Z"/>
        <path class="cls-1" d="m87.72,198.86s.02-.02.03-.03c-.01,0-.02,0-.03,0h0v.02Z"/>
        <path class="cls-1" d="m379.64,143.44c-5.43,4.13-10.86,8.26-16.28,11.37-.22,1.65-.43,3.3-.67,4.88-.45,2.95-1.82,5.86-2.57,8.84,9.18-3.45,17.66-9.9,26.16-16.35,8.21-6.24,16.42-12.48,24.58-15.21.66-3.94,1.13-7.86,1.4-11.75-11.76,2.34-22.19,10.29-32.62,18.21h0Z"/>
        <path class="cls-1" d="m332.3,168.84c6.14,1.8,12.28,2.73,18.41,2.03,1.63-.19,3.23-.49,4.81-.89.49-2.65,1.83-5.67,3.25-8.22.76-1.37.7-3.13.76-4.92-3.37,1.6-6.73,2.72-10.07,3.11-1.34.15-2.71.19-4.1.13.31,1.63.58,3.27.89,4.9-2.88.6.12,1.31-.02,1.96-2.6,2.01-5.53,1.49-8.45.89,1.87-1.45,4.25-2.54,1.09-5.33-.89-.79.7-1.84,1.14-3.09-3.98-.78-8.1-2.15-12.29-3.81l-1.26-.51.8,4.24-2.39-.05h-.18c.05,1.47.09,2.67.13,3.8h.06c2.25.1,2.07-1.78,2.85-2.84l.09-.12c2.81-.23,5.91-1.73,4.94,3.8-.18,1.02-.84,3.04-.46,4.9v.02Z"/>
        <path class="cls-1" d="m327.73,164.09c-.93,0-1.72.35-2.25,1.8-.07.19-.15.37-.25.54.83.32,1.66.62,2.49.92.38.13.75.26,1.13.39-.14-1.02.01-2.16.5-3.46.29-.04.58-.08.87-.13-.05-.08-.13-.24-.14-.24-.25.1-.5.22-.75.34-.57-.07-1.11-.16-1.61-.16h.01Z"/>
        <path class="cls-1" d="m153.02,157.85c.13-.02.26-.04.39-.07.35-.09.72-.24,1.1-.36l-1.1-.25c-.37-.08-.74-.15-1.1-.22.11.35.3.69.72.9h0Z"/>
        <path class="cls-1" d="m266.71,143.42l-.16.07-.35.14.35.07.24.04s.08-.1.11-.16l-.19-.16h0Z"/>
        <path class="cls-1" d="m26.68,188.06c.1-.5.26-.97.53-1.33.53.44.7,1.17.86,1.91,2.66,1.12,5.33,2.32,8.01,3.52.44-.43,1.02-.81,1.78-1.14-.33.56-.48,1.13-.54,1.7l1.4.62-.02-1.12c1.27.63,1.83,1.29,1.9,1.96,3.85,1.7,7.7,3.33,11.55,4.7l1.19.41.37.13c.58-.18,1.18-.24,1.81-.16.31.04.62.11.94.22-.13.27-.15.53-.1.79.87.26,1.73.5,2.6.73-.29-.35-.48-.85-.81-1.29,1.67-.8,2.5-.49,2.83.69.07.25-.34.86-.64.94,4.98,1.17,9.97,1.68,14.95,1.11.8-.09,1.61-.21,2.4-.36,1.91-.35,3.78-.86,5.63-1.48l.2-.23.05.15c1.4-.48,2.79-1.06,4.16-1.68-.85-1.88-.29-3.26.39-4.58l.33-.64c-.05,1.55,1.31,3.35-.33,4.91-.1.1-.22.2-.35.3.12-.05.24-.09.35-.14,7.89-3.63,15.31-9.28,22.72-14.92,8.94-6.8,17.91-13.61,26.8-15.86,1.13-.29,2.26-.5,3.39-.63.25-.03.5-.05.75-.07,3.7-.31,7.61.22,11.65,1.27,1.29.33,2.58.72,3.89,1.14l1.86-3.34c.67,1.63.29,2.79-.32,3.86,1.69.59,3.4,1.25,5.12,1.94.51-.19,1.08-.05,1.72.71l.78.33c2.55,1.08,5.11,2.23,7.68,3.37l2.29,1.02,1.08.48.13.06-.13-.13c-.37-.36-.73-.72-1.08-1.1-1.09-1.18-1.97-2.54-1.92-4.64.04-1.8-5.5-1.43-4.78-5.24.25-1.33.6-2.65.96-3.97-1.41-.6-2.82-1.18-4.23-1.74l-.6-.24c-.06.25-.11.49-.12.73-.65-.32-1.3-.64-1.95-.95l.2-.48c-2.16-.8-4.32-1.52-6.48-2.13l-.2,2.71c-1.32.42-3.13-.11-3.91,1.63l-.05.12.05.03c3.7,2.04,5.34.48,5.8-3.2.82.53,1.64,1.06,2.46,1.6-.11,2.88-3.85,5.41-6.45,4.44-.59-.22-1.21-.39-1.8-.54-.61-.15-1.2-.29-1.73-.43-1.47,1.75.35,2.32.73,3.41l-2.31-.29c-1.27-1.07-2.74-.55-4.15-.52l-2.81-.35c.25-.44.49-.89.73-1.33,2.63.64.75-2.63,2.54-2.77l-2.28-.28c2.11-1.71,4.66-3.01,5.8-5.63l.15-.21c-1.51-.22-3.03-.36-4.54-.42l-1.62.83c.06.16.12.32.19.48-.17-.08-.34-.16-.52-.23h0l-1.16-.33.38-.77c-.34,0-.69.03-1.03.05-.66.04-1.33.09-2,.17-.72.08-1.43.19-2.13.31-3.82.67-7.5,1.94-11.08,3.62.59.41.4,1-.08,1.7-.89-.13-1.29-.51-1.32-1.02-7.23,3.63-14.09,8.85-20.94,14.06-5.37,4.09-10.74,8.18-16.1,11.27-3.48,2.02-6.96,3.62-10.43,4.53-1.22.32-2.44.56-3.65.69-5.75.66-12.01-.77-18.51-3.1-.72-.26-1.45-.53-2.18-.81l-1.19-.46c-3.72-1.48-7.5-3.17-11.27-4.87-5.09-2.28-10.17-4.57-15.26-6.41l.23,1.98c.08.11.15.22.23.33-.07-.02-.15-.03-.18-.07-.05-.07-.05-.16-.07-.24-2.27-.86-1.17,1.07-1.58,1.75h0c1.08.49,2.16.96,3.37,1.49.99-1.16.17-2.45-.17-3.99,2.01.4,1.83,3.24,3.97,3.03-.13.54.76,1.18-.89,1.41-2.47.36-.87,3-1.55,4.49.08.13.15.25.23.37-.11-.1-.23-.19-.34-.29h0c-1.2-1.22-2.68-1-4.62-.62l-.74.14.74-5.99v-.04h0v-.02c-1.01-.91-1.57-2.79-4.11-.84.89-2.38,2.7-2.09,4.11-2.85.18-.1.36-.22.52-.36l-.52-.18c-4.18-1.45-8.37-2.56-12.55-3.11-.8-.1-1.59-.19-2.39-.25-1.44-.11-2.88-.15-4.33-.1,1.15,3.72,2.49,7.43,4.02,11.12l.3.03c.79.08,1.58.19,2.39.33l.43.07.15-.47c0,.17,0,.33.01.5,3.87.71,7.88,2.01,11.97,3.59.81.31,1.61.63,2.42.96l-.03.04Zm139.79-25.57l.67.17-.67,1.27-.64,1.19c-.02-1.64-.02-2.22-.03-2.8l.67.17Zm-24.71,3.71c.18.06.34.3.51.47l-.51-.06-.51-.07c.2-.32.37-.39.51-.34Zm-5.22-8.99c.33-.35.71-.44,1.09-.38.51.09,1.02.47,1.4.97-.43.06-.85.12-1.28.18,0,.03-.02.05-.03.08l-.1.62-.04.21c-1.01-.2-1.86-.81-1.04-1.68Zm-1.84,3.44c1.49-.41,1.79,1.32,2.93,1.55h.07l-.07.04c-1.64.67-3.14,1.08-2.93-1.59Zm-59.22,32.34c.38,1.73,1.21,2.89,2.2,3.81.9.84,1.94,1.49,2.9,2.19-.79,1.45-1.78,1.96-2.9,1.68-.29-.07-.6-.2-.91-.37-2.99-1.68-1.92-4.17-1.29-7.31Zm-19.96-.43c.62.42,1.34.99,2.29,1.03-.93.25-1.67.48-2.29.59-.94.17-1.59.08-2.18-.55l-.11-.13.11-.26c.7-1.58,1.34-1.26,2.18-.68Zm-3.36-4.3c.02-.06.04-.13.05-.19.24.78.87,1.55,1.13,2.26.13.37.17.72,0,1.05s-.53.63-1.19.91l-.24.09c-2.3-1.52-.27-2.66.24-4.11h0Zm-42.84-6.02l-.18.1c-.2-.34-.35-.58-.49-.82.22-.1.46-.28.67-.31h.12c.22.05.37.4.55.63l-.67.41h0Zm6.9-3.04c.06.14.12.29.19.43-.13-.09-.27-.17-.4-.26h0c-2.59,1.08-4.02.87-4.29-.74-.06-.38-.06-.84,0-1.37s.19-1.15.38-1.84l-.38.23-2.39,1.41-1.24.72c-.41-1.27-.78-2.44-1.32-4.11l2.56.21,2.39.19,4.95.4c-1.62.76-2.35,1.1-4.06,1.9,3.16-.13,3.46,1.3,3.62,2.84h-.01Z"/>
        <path class="cls-1" d="m176.28,172.28s.08.06.15.09l.05.02c.04-.08.1-.16.11-.24,0-.02-.08-.05-.15-.08l-.04-.02c-.04.08-.1.16-.11.24h-.01Z"/>
        <path class="cls-1" d="m307.56,158.81l.82.36,3.48,1.55c3.39,1.52,6.79,3.05,10.18,4.44,1.12-3.43-.03-7.56,2.85-10.45l.18-.18-.18-.08c-2.84-1.19-5.7-2.47-8.56-3.76-2.65-1.19-5.3-2.38-7.95-3.5-1.5-.64-3-1.25-4.5-1.84-2.4-.94-4.8-1.8-7.2-2.52l-.97,2.25c-.67-1.43-.17-3.38-2.93-2.99l.23-.27c-5.18-1.27-10.36-1.84-15.54-1.25-3.44.39-6.77,1.29-10.01,2.55l-.5.37s-.05.06-.07.1c.09.08.17.15.26.23-.13-.02-.25-.05-.37-.07l-.24.34-1.68,2.38c-.67-.09-.77-1.85-2.24-1.02-.85,1.5.77,2.42,1.3,3.94-3.44.03-4.06,2.56-4.79,6.19-.78-2.64-1.25-4.21-1.71-5.78.32-.65.45-1.26.44-1.83-2.41,1.46-4.79,3.06-7.15,4.74.65.52,1.45.9,2.06,1.45.16.46.32.91.48,1.37.17.81.34,1.61.51,2.42-2.02,1.29-4.08,2.45-7.13,2.45-.53,0-1.09-.04-1.68-.11.57-.4,1.14-.78,1.68-1.18,2.03-1.49,3.54-3.05,2.63-5.37-.88.64-1.75,1.29-2.63,1.95-1.19.89-2.38,1.79-3.57,2.69l-1.15.87c-3.25,2.46-6.49,4.93-9.73,7.18-5.04,3.5-10.07,6.47-15.08,8.11l-.51.16c.17.06.34.12.51.19.54.21,1.07.45,1.61.66.1.87-1.88,1.95.31,2.62,1.74,2.79.13,5.04-.76,7.49,4.82-1.28,9.44-3.46,13.93-6.15,1.55-.92,3.08-1.91,4.61-2.94-.32-.38-.53-.82-.41-1.44,1.5-1.87-1.77-5.06,2.01-6.44.24,2.09-.86,4.54.92,6.13,1.25-.88,2.5-1.79,3.75-2.72,1.2-.88,2.38-1.78,3.57-2.68l1.89-1.44c2.51-1.9,5-3.8,7.51-5.6-.06,0-.12,0-.18,0-.13-.69-.27-1.38-.41-2.06l2.05,1c2.51-1.77,5.02-3.42,7.52-4.84l-.53-1.78c.71-.36,1.39-.63,2.03-.83,1.47-.44,2.76-.45,3.77-.04,2.81-1.2,5.61-2.03,8.4-2.35,4.2-.48,8.69.15,13.33,1.44.56-.15,1.15-.26,1.77-.33l.55,1.02c3.11.99,6.29,2.23,9.5,3.58.94.4,1.89.81,2.84,1.22.15-.87.94-.64,1.58-.69v-.03l.08-.1.09-.1-.09.14-.06.09h-.03c-.16.48-.32.95-.73,1.06l.04.02Zm-60.97-1.92l.06.05.1.08-.1.03-.1.03.05-.18h0Zm-14.38,15.35l-.11.13c-.86-.97-.36-1.33.11-1.79.07-.07.14-.14.2-.21.73.95.25,1.36-.2,1.88h0Zm10.87-1.87l-.77-.86c.32-.06.57-.07.77-.04.65.11.73.7.77,1.75l-.77-.86h0Zm61.39-22.04c-.2-.09-.41-.16-.59-.23-.49-.19-.85-.4-.68-1.05.03-.13.33-.28.51-.28h.18c.74.09.86.6.59,1.56h-.01Z"/>
        <path class="cls-1" d="m189.12,181.19c-1.05-.11-.85-1.01-.96-1.7,0-.17,0-.33,0-.5-.22.15-.45.31-.67.46-.69.22-1.12,1.32-1.65,2.1,9.05,3.6,18.11,6.13,27.15,5.1,1.17-.13,2.33-.33,3.48-.58l.1-.17c.22-.42.41-.82.56-1.23.69-1.85.66-3.58,0-5.21-.49-1.19-1.31-2.33-2.44-3.42-.19-.18-.28-.48-.35-.77-.87.19-1.73.34-2.59.44-9.7,1.11-20.9-3.76-32.14-8.8.03.62.12,1.26.29,1.92-.38,1.28-1.62.31-2.38.73-.04.02-.09.05-.13.08.05.17.09.34.13.51.52,2.41.22,5.28,3.16,6.31,1.84.64,2,1.62,2.08,3l-1.22.29,1.86.78c3.24-1.15-.68-4.07.89-5.63,1.4,1.25,3.49,1.82,4.13,3.83.73.36,1.85.44,1.54,1.63-.08.33-.58.82-.84.79v.04Z"/>
        <path class="cls-1" d="m69.72,227.93c1.16-1.84-3.36-1.83-2.12-4.44,2.3.42,3.16-.4,3.59-1.6-1.85-.21-3.74-.56-5.66-1.04-2.42-.61-4.89-1.41-7.38-2.33l-.99-.37c-4.21-1.6-8.5-3.53-12.79-5.46-1.44-.64-2.88-1.29-4.31-1.93-.08-.02-.16-.05-.24-.09-.08-.03-.15-.08-.22-.11-6.58-2.9-13.16-5.56-19.76-7.04,3.43,5.29,7.35,10.48,11.73,15.55,2.76,1.16,5.54,2.41,8.33,3.65,5.76,2.58,11.51,5.17,17.27,7.11l.99.33c.56.18,1.13.36,1.69.53.46-.15,1.01-.24,1.58-.38-1.22-.59-2.1-1.02-2.96-1.44,1.92-1.2,2.11-2.24-.28-3.08,0,0,0,0-.02,0h0l-.02-.02c-.33.33-.73.95-.97.92h-.02c-.92-.22-1.01-1.02-.94-1.81h.02l.94.43.97.46s0,0,0-.02h0l.02.02c1.86-1.45,3.13-3.95,6.3-3.1.39,2.4-1.66,1.51-2.91,1.82.3,1.55,1.93,2.75.97,4.42.93.4,2.25.17,2.99.51.41.19.64.54.54,1.29-.06.46-.25.86-.54,1.19-.06.07-.12.13-.19.19l.19.04c1.17.24,2.33.44,3.5.59-1.12-1.3-.53-2.86.69-4.79h0Zm-4.19.56c-.59-.09-.73-.59-.59-1.72l.59.82.64.88c-.25.04-.46.05-.64.02h0Z"/>
        <path class="cls-1" d="m389.73,168.9c-1.74,1.27-3.46,2.57-5.19,3.88l-1.41,1.07c-1.72,1.31-3.45,2.63-5.17,3.91-6.83,5.07-13.67,9.63-20.46,11.64.63.41.76,1.05.5,1.88-.92-.34-2.2-.52-1.53-1.59-1.17.3-2.34.53-3.51.66-5.46.63-11.39-.64-17.53-2.76v.24l-.83.06-.02.06.02-.06h0l.18-.53c-1.94-.69-3.91-1.46-5.89-2.28.3,2.07-.24,3.45-3.16,3.75-.18-1.87.54-3.12,1.84-4.3-1.95-.83-3.91-1.69-5.88-2.57l-.4-.18-1.47-.66-.14-.06c-10.32-4.63-20.65-9.25-30.98-10.15-2.58-.23-5.16-.22-7.74.07-.65.08-1.3.17-1.95.28-.7.12-1.39.26-2.07.42-4.07.94-7.98,2.53-11.8,4.55l-.68.36c.34.08.55.23.68.43.58.87-.35,2.64,1.49,2.94-.53.09-1.02.06-1.49-.04-1.33-.29-2.49-1.18-3.7-1.6l-.05.03c-.82.49-1.63,1-2.44,1.52.29,1.23.42,2.42-1.51,3.07-.45,1.47-.18,2.83.74,4.09-1.16-.43-1.9.23-2.65.9-.07-1.55-.14-3.09-.21-4.63.69-.12.87-2.31,2.06-.45.02-.63.22-1.46-.3-1.75-.6.4-1.19.82-1.78,1.23l-.19.13c0,.26.07.54.17.82h.03v.03h-.02v-.02l-1.6.18c-2.78,1.99-5.52,4.08-8.27,6.17-1.94,1.47-3.88,2.95-5.81,4.37-1.5,1.1-2.99,2.17-4.49,3.2.19-.06.43-.06.7-.03-.05.46-.11.93-.16,1.38,1.59,1.06,2.16.4,2.16-1.2.25.06.49.13.73.2l1.06.53.83.4c.41.27.83.53,1.24.8.75,2.23.25,4.41-.19,6.6-.57-.06-1.13-.13-1.7-.18l-.18-.59-.04-.13c-.19-.24-.37-.48-.56-.72-.88-.08-1.77-.17-2.65-.25l-1.78-1.53-.16-.14.07-1.26.09-.04c1.09-.51.92-1.56,1.07-2.48l-1.07-.21-.17-.03c.02-.27.07-.5.17-.68.02-.04.05-.08.07-.12l-.07.05c-2,1.36-4,2.62-6,3.74l-.22.92-1.34-.07-.86.44-.65,1.2-1.51-.14h-.08c-.51.22-1.02.43-1.54.63.65.54,1.8.93.4,2.49l-.84-2.32c-2.24.84-4.48,1.42-6.72,1.68l-.38.04-.56.05c-9.77.73-20.97-4.3-32.19-9.34-7.63-3.42-15.26-6.84-22.89-8.78-5.31-1.35-10.63-1.97-15.95-1.36-1.23.14-2.44.35-3.64.62-1.06.23-2.11.51-3.16.83l-.09,1.38c-.98-.38-1.22-.7-1.1-1-.86.29-1.72.61-2.57.96.22.75.59,1.57.93,2.42.48-3.05,3.56,1.24,4.05-1.84.58-1.19,1.25-1.51,1.95-1.45.96.07,1.98.85,2.96,1.09-.45,1.34.49,2.2,1.28,3.15-1.4,1.41-2.8,1.31-4.24.41-.12-.08-.25-.16-.37-.25-3.65-.24-4.51,3.84-7.74,4.58-1.7-1.84-1.21-4.34-2.05-6.42l-.08-.21c-3.43,1.66-6.77,3.69-10.07,5.92l-.14.09c-.04.36-.01.7.14.99.2.38.62.66,1.4.8-.38.54-.75,1.09-1.13,1.64-.09.08-.18.16-.26.25-.93.87-1.83,1.86-3.74.98.75-.88.92-1.75.58-2.55-1.51,1.08-3.01,2.19-4.51,3.32-1.31.99-2.62,1.98-3.93,2.97l-1.52,1.16c-9.58,7.28-19.16,14.25-28.66,15.34-1.08.12-2.17.17-3.29.16-.03,1.33.34,2.7,1.42,4.15.87,1.17,1.45,2.17,3.09,1.85,2.2-.43,3.05,1.2,2.97,2.57-.06,1.03-1.31,1.87-3.11,1.16-1.77-.7-3.06.14-3.48,1.28,1.21-.02,2.43-.09,3.65-.23,2.28-.26,4.5-.75,6.69-1.41-.18-.27-.42-.5-.76-.68,1.04-.51,1.78-.28,2.49.12,1.4-.49,2.79-1.05,4.17-1.68.18-.85.96-1.71,1.45-2.84.25.74.39,1.37.44,1.94,4.42-2.21,8.71-5,12.94-8.04,1.83-1.31,3.64-2.67,5.46-4.04l2.7-2.05c1.65-1.26,3.31-2.51,4.97-3.74,3.26-2.43,6.52-4.74,9.78-6.73-.08-.24-.19-.48-.36-.71-.41-1.65-.3-3.18,1.1-4.39,3.23-.62,4.56.26,4.82,2.08,1.66-.78,3.31-1.44,4.97-1.95,1.64-.51,3.27-.87,4.9-1.05,4.61-.53,9.56.3,14.69,1.85.5.15,1.01.31,1.51.47.49-.09,1.02.27,1.54.52l.61.21h.1v.03c4.81,1.72,9.74,3.94,14.68,6.15,12.21,5.48,24.43,10.97,36.64,10.33l.56-.03c.55-.04,1.09-.09,1.64-.15,2.56-.29,5.06-.86,7.51-1.66,3.63-1.18,7.14-2.85,10.58-4.84,1.7-.98,3.37-2.03,5.03-3.14.63-.42,1.25-.85,1.88-1.28l.03-.24c.44-.26.87-.52,1.95-1.18v.03c.94-.68,1.88-1.37,2.83-2.07l.22-1.01c.42,0,.76.03,1.03.08,1.5-1.12,2.99-2.25,4.48-3.38l1.54-1.17c-.42-.04-.8-.25-1.01-.99l2.13.14.6-.45c2.03-1.53,4.06-3.02,6.09-4.44,1.25-.87,2.51-1.72,3.75-2.52,3.94-2.52,7.87-4.62,11.8-5.89.69-.22,1.38-.42,2.07-.59,1.07-.27,2.14-.46,3.21-.59,2.1-.24,4.27-.2,6.49.06,4.51.53,9.24,1.96,14.08,3.81.47-1.82,1-3.69-.02-5.65,3.69,1.15.39,5.63,5.16,5.14-.76.59-1.48,1.15-2.1,1.71,3.16,1.3,6.35,2.73,9.54,4.16,1.41.63,2.81,1.26,4.22,1.88.04-.1.08-.2.11-.3.08-.26.13-.52.12-.78h-.03l-.09-.07-.12-.09.12.07.12.07v.02c.83.05,1.34-.29,1.49-1.09v-.03h-.01v-.02c-.5-.26-1.11-.45-1.6-.72-.84-.46-1.31-1.12-.25-2.6l.25.09c.95.37,1.43.94,1.61,1.64.12.47.11.99,0,1.56v.03h.01v.03l.4.37c1.45,1.38,1.79,2.09.71,3.07,1.18.51,2.36,1.01,3.55,1.49-.87-.91-.07-2.12-.88-4.12,2.32,2.19,1.89,3.26,1.51,4.38,9.21,3.7,18.42,6.34,27.63,5.28,8.47-.97,16.23-4.98,23.75-10.04,2.21-1.49,4.4-3.07,6.58-4.69,1.74-1.29,3.46-2.61,5.19-3.92l.03-.02,1.72-1.3c1.86-1.41,3.71-2.81,5.57-4.15,3.12-5.92,5.76-11.86,7.91-17.8-4.62,2.22-9.08,5.12-13.48,8.27-.59.42-1.17.84-1.75,1.26h-.05Zm-150.12,28.84l-.6-.07c.21-.21.41-.32.6-.33.22,0,.42.14.6.47l-.6-.07h0Zm-133.44,21.27l-.03.02c-.13-.21-.26-.42-.39-.62.14-.04.3-.13.43-.15h.1c.13.04.19.28.32.5l-.42.25h-.01Zm5.46-6.2l-.09.11.09-.12.08-.11h0l-.09.12h0Zm9.76-6.68c-.39.59-.77,1.18-1.17,1.78-.36.18-.66.28-.93.3-1.26.09-1.7-1.36-2.65-1.93.73-1.26,1.66-1.62,2.65-1.65.86-.03,1.77.19,2.65.31-.18.4-.37.8-.55,1.2h0Zm18.22-8.35l-.05.02c-1.33-.73-1.6-1.65-.57-2.8.15.16.37.32.61.46.98.6,2.25,1.14,0,2.31h.01Zm22.02-3.69c-1.13.51-1.81.09-2.43-.49-.74-.69-1.39-1.6-2.56-1.45.77-1.19,1.66-1.14,2.56-.93l.5.13,1.69.05-.1.18c0,.21.1.38.25.52.08.43.15.87.23,1.3-.05.23-.08.46-.13.69h0Zm53.21,21.95l-.46.18s-.02.03-.03.05l-.08.1-.11.12.11-.15.05-.09s.03-.02.05-.02l.46-.63.1-.14c.12.14.24.27.36.41l-.45.18h0Zm9.19-1.01l-.05-.03-1.32-.97c.07-.23.14-.45.2-.69.57.03.73-.92,1.12-1.33.27-.29.64-.31,1.32.43-.03,1.04.07,2.15-1.28,2.59h.01Zm10.54-5.46c-.22.22-.54.31-1.04.16-.29-.08-.29-1.08-.43-1.66h0c.82,0,1.74.04.96-1.18-.06-.21-.12-.42-.18-.64l.7-.1,1.41-.23c.02.62.05,1.24.07,1.85-.92.11-.94,1.29-1.48,1.8h-.01Zm26.8-20.74c-.67-.65-1.11-1.44-.76-2.71.31.08.56.18.76.29,1.32.75.53,2.18.87,3.14-.31-.24-.61-.47-.87-.72h0Zm3.75-6.54c-.29-.16-.63-.54-1.1-1.02l1.1.21,1.1.21c-.44.66-.74.79-1.1.6h0Zm13.87-7.94l-.07.08h-.02c-.32,2.01-1.09,1.8-1.99,1.38-.63-.29-1.33-.68-1.99-.46.44-1.25.74-2.09,1.07-3.03l.91.66,1.99,1.45h0l.08-.1.09-.09-.09.12h.02Zm9.69,5.05c-.99-.22-.68-.92-.1-2.04l.1.29.64,1.82c-.26,0-.46-.03-.64-.06h0Zm32.99,4.11l-.06.05-.09.09h0l-.25.48-.16.29c-.07-.07-.21-.19-.2-.21.11-.15.24-.29.36-.44l.17-.21.23-.12.16-.09-.16.15h0Zm56.26-1.84c-.27.21-.61.41-.99.63l.99-2.31.72-1.7c.53,1.76.28,2.6-.72,3.37h0Zm6.58,2.82c-.65.12-1.3.25-1.45.83-.25-2.2-.31-4.51,1.43-5.97h.01c.81-.67.73.86.88,1.49-1.39.91-.6,1.28.44,1.6.75,1.72-.3,1.86-1.32,2.04h.01Zm5.19-11.4l-.03-.03c-.08-.07-.16-.13-.24-.2l.27.15h.02l.24.34-.27-.26h.01Zm1.91-.61c0,.09.03.19,0,.24-.03.04-.09.06-.16.08l-.06.02c-.04-.07-.08-.14-.11-.21l.18-.06.16-.06h-.01Z"/>
        <path class="cls-1" d="m147.29,225.1c.09.19.2.37.33.57.73-1.29,1.46-2.59,2.31-4.09-1.36.37-2.23.88-2.64,1.5-.38.58-.37,1.25,0,2.01h0Z"/>
        <path class="cls-1" d="m95.26,259.22c-1.8-.23-2.93-.77-1.32-3.44,1.25-2.06-2.1-2.42-2.54-4.14.52-1.02,3.19.77,2.54-1.58-.47-1.72-1.87-.73-2.78-.44-.55.18-.9.18-1.13.07l-.35.16c-2.9,1.26-5.8,2.14-8.69,2.47-4.1.47-8.46-.12-12.98-1.34l15.92,12.03c1.95-.32,3.87-.79,5.75-1.41,1.89-.61,3.74-1.35,5.58-2.2l.3-.14h.01-.01l-.3-.03h0Zm-5.58-6.81l-.08.1c-.2-.45-.39-.7-.37-.94.01-.1.24-.2.45-.26.06-.02.12-.03.17-.04.07,0,.3.34.27.49-.04.19-.22.36-.44.65h0Z"/>
        <path class="cls-1" d="m94.83,247.24l-1,.56.63.97c.23-.52.31-1.04.37-1.53Z"/>
        <path class="cls-1" d="m121.76,241.61v-.11c.22-2.51,2.05-3.74,4.13-4.76,1.29,1.75-.73,1.79-1.38,2.58-.17.2-.34.42-.51.63.92-.68,1.85-1.34,2.77-1.99,1.47-1.03,2.93-2.03,4.4-2.96-.02-1.43-.27-2.79-2.23-3.54,2.89-1.41,4.99-1.39,6.93.79,3.82-2.03,7.63-3.5,11.42-4.05l.26-.04-.26-.22c-.45-.38-.93-.77-1.39-1.17-1.94-1.66-3.61-3.94-2.87-6.94,1.72.07,2.03,1.63,2.91,2.59.91-1.86.64-3.53-.07-5.14-6.74.94-13.03,3.78-19.11,7.49-5.3,3.24-10.45,7.15-15.59,11.07-4.36,3.32-8.73,6.63-13.08,9.42.52.18,1.02.39,1.48.53,5.09,1.53-.63,3.64.85,6.22-2.18-1.23-3.93-2.16-4.87-.9-.11.15-.21.33-.3.54-.13.32-.24.71-.32,1.19.1.16.21.29.32.4.1.1.2.19.3.26,1.75,1.18,4.47-1.56,5.92.92-1.78.52-2.87,1.53-1.7,2.66,6.17-3.48,12.1-7.97,18.03-12.47,1.32-1.01,2.63-2,3.95-2.99h.01Zm4.73-10.66l.28.2.71.49-.71.53-.23.16c-.16-.24-.32-.47-.48-.71.14-.22.28-.45.43-.67Z"/>
        <path class="cls-1" d="m149.27,216.97c.1.06.23.12.33.18.03-.07.08-.13.12-.2l-.45.02Z"/>
        <path class="cls-1" d="m349.18,220.59c-3.95-.54-8.06-1.76-12.26-3.31.46,1.28-.61,1.56-1.84,1.45-3.05-.14.02,4.34-3.48,4.03-.67-2.64-.75-5.22-.41-7.78-2.36-1-4.73-2.05-7.1-3.12l.33,2.76c-1.97-.71-1.82-1.48-.53-2.85l-.58-.26-1.88-.84-1.93-.86c-1.48-.65-2.96-1.3-4.44-1.93-3.45-1.46-6.9-2.81-10.35-3.91-1.49-.48-2.97-.9-4.46-1.27-4.26-1.07-8.52-1.66-12.79-1.53-1.01.03-2.01.1-3.02.21-8.76,1.01-16.76,5.26-24.52,10.57l.17.15c1.75.32,2.94,2.3,1.61,2.64-4.77,1.21-3.1,5.76-5.29,8.14-.85-.13-1.5-.32-1.95-.6-.94-.57-1-1.47,0-2.71.12-.15.26-.31.41-.47,1.58-1.66,1.7-3,.84-4.17l-1.25.93c-1.85,1.37-3.7,2.77-5.55,4.18-4.97,3.77-9.93,7.54-14.88,10.53-5.12,3.1-10.23,5.36-15.31,5.95l-.47.05c-2.61.25-5.32.07-8.11-.41-.13.13-.25.28-.36.46-.21,0-.42-.04-.62-.09l.06-.55c-7.52-1.47-15.57-5.08-23.63-8.69-8.41-3.78-16.81-7.54-25.22-9.32l-.62-.13c-2.94-.58-5.88-.92-8.81-.93.71,3.8,1.37,7.52,2.6,11.13,1.14.1,2.29.26,3.45.48-1.03-2.96.71-4.4,2.76-5.7l.62-.38.34-.21c.23.33.45.66.68.99-.34.37-.69.75-1.01,1.12-.22.25-.43.51-.62.76-.93,1.26-1.35,2.52,0,3.77.14.13.29.25.46.37l.16.04c6.68,1.73,13.72,4.89,20.77,8.05,9.05,4.06,18.11,8.11,27.17,9.68,0-.18,0-.38,0-.59.58-.2,1.17-.4,1.75-.6.89.33,1.78.67,2.67,1l-.14.73c1.89.15,3.79.18,5.68.06.58-.04,1.15-.09,1.72-.16,4.89-.56,9.55-2.13,14.06-4.33,7.06-3.45,13.76-8.44,20.43-13.51l1.05-.8c1.51-1.15,3.01-2.29,4.52-3.41-.03-.37.2-.83.7-1.41l.2.74c4.55-3.37,9.09-6.5,13.62-8.79l.45-.91c.3.09.56.19.79.29.58-.27,1.16-.53,1.74-.77.06-.29.26-.87.55-2.01l.35,1.64c2.43-.95,4.85-1.61,7.26-1.88.58-.07,1.17-.11,1.77-.13,4.06-.17,8.35.61,12.79,1.93,1.47.44,2.96.94,4.46,1.49,3.41,1.24,6.87,2.72,10.35,4.26,1.26.56,2.52,1.12,3.78,1.69l.65.29,1.93.86c4.33,1.93,8.66,3.8,13,5.35-.61-1.05-1.93-2.14-4.76-2.16,4.39-1.47,5.85-3.47,5.26-6.6,2.89.58.89,2.41,1.19,3.7.51,2.19,1.46,4.28,2.31,6.4,3.59,1.09,7.18,1.91,10.77,2.28,2.27.24,4.54.3,6.82.15l12.79-15.33c-4.13,2.22-8.25,3.78-12.35,4.25-2.34.27-4.76.19-7.26-.15h-.03Zm-188.67,1.13l-.15-.25-.48-.8h-.04l-.1-.06-.14-.08.14.07.13.06s0,0,0,.02l.48.06.48.06-.33.93h0Zm59.11,20.57c-.11.31-.22.62-.32.92-.31.35-.63.71-.94,1.06h-.11c-.37.03-.73.04-1.1.05-.16-.71-.31-1.42-.47-2.13l1.57-1.65.56-.59c1.84.18.58,1.53.82,2.33h0Zm15.37-5.13c-.39.22-.7.34-.96.39-1.02.2-1.12-.78-1.11-1.89l1.11-.2.96-.17c.08.19.13.38.15.57-.05.43-.1.87-.15,1.3h0Zm21.08-8.89c-.53,0-1.1.06-1.61.04-.99-.05-1.78-.41-1.66-2.05.66-.42,1.18-.37,1.66-.19.57.22,1.07.64,1.66.65-.02.52-.03,1.04-.05,1.56h0Zm31.56-16.48l-.16-.06-.56-.22.51-.96.06.02.56.21c-.13.34-.27.67-.4,1.01h-.01Zm12.63-2.17c-.07,0-.14,0-.2,0-.2-.05-.31-.43-.46-.66l.66-.3.29-.13c.15.34.26.6.37.85-.22.07-.45.21-.66.25h0Zm4.46,1.31l-.15.13c-.32-.54-.66-.88-.71-1.24-.08-.71.41-.78.86-.67.08.02.16.05.24.08.3.11.67.62.62.87-.06.28-.44.5-.86.84h0Zm10.35,7.47l-1.59-.58c.28-.73.96-1.06,1.59-1.43.51-.3.97-.63,1.13-1.22.13,1.1.26,2.21.45,3.8l-1.58-.57h0Zm3.03-5.48c-.02-1.3.55-1.94,1.41-2.18.19-.05.38-.09.59-.11.25-.02.88.78.81,1.1-.2,1.01-.76,1.17-1.41,1.17-.45,0-.95-.07-1.41.02h.01Zm3.34,7.51c-1.6.21-1.91-.66-1.09-2.73l1.09.98,1.52,1.37c-.6.2-1.1.33-1.52.38Zm27.76,10.33h-.06c-.07-.02-.13-.12-.19-.18l.24.04.24.04c-.1.03-.18.09-.24.1h.01Zm0-2.8c-.33.56-.88,1.14-1.37,1.91-.41-1.93-.74-3.15.6-4,.14-.09.58,0,.77.14.03.03.06.05.08.08.38.73.27,1.29-.08,1.87Z"/>
        <path class="cls-1" d="m148.05,226.42c-.13-.21-.26-.43-.4-.64.04.26.09.52.13.78.09-.05.18-.1.27-.14h0Z"/>
        <path class="cls-1" d="m96.17,257.63c-.39.13-.56.28-.61.43v.18c.07.24.38.49.58.74.5-.24,1-.49,1.5-.75-.19-.54-.5-.94-1.47-.6h0Z"/>
        <path class="cls-1" d="m149.52,227.08c.08-.04.15-.08.22-.11-.11-.07-.24-.15-.36-.22-.03.07-.1.16-.08.2.04.07.14.1.21.14h0Z"/>
        <path class="cls-1" d="m166.53,257.26c-.11.07-.23.13-.33.21l-5.24-.61-.11-.02c.03.14.07.29.11.41.32.98.95,1.63,1.71,2.16,1.72.4,3.46.9,5.22,1.48-.82-1.1-2.61-1.88-1.64-3.37.1-.09.19-.17.29-.26h0Z"/>
        <path class="cls-1" d="m235.97,261.89l-.18.1c-.45.26-.91.51-1.36.75-.5.27-1,.52-1.5.77-.57.28-1.14.55-1.71.81-.38.17-.76.33-1.14.48-.45.18-.9.36-1.35.53-2.18.8-4.36,1.35-6.53,1.6-9.99,1.15-21.56-4.05-33.14-9.25l-3.95-1.76c.15.37.47.65,1.11.75,2.27,1.79-1.07,3.17-.21,5.21,2.6.03,3.17,1.44,2.24,3.44-3.14-.48-2.99,1.18-2.94,2.7,12.71,5.71,25.43,11.29,38.14,9.83.93-.11,1.84-.25,2.75-.43l-.28-.07c-.34-1.63-.69-3.25-1.02-4.87.1-.18.18-.37.25-.56,1.2-.11,2.4-.11,3.58-.05.45.03.9.06,1.35.1.38.04.76.08,1.14.12.57.07,1.14.15,1.71.24.5.08,1,.16,1.5.25l1.36.24.18.03,2.11.37c5.79-2.91,11.35-6.84,16.85-10.97-.61-1.39,0-3.29,1.95-5.57-.01.94-.02,1.6-.03,2.26-.87,1.02-.55,1.48.07,1.81l2.07-1.57.94-.71c4.78-3.62,9.55-7.19,14.31-10.04,5-2.98,9.97-5.16,14.93-5.73,1.03-.12,2.08-.17,3.15-.16-1.34-.89-.7-2.52.77-3.51.71-.48,1.68-.73,2.28-1.32.41-.4.64-.97.49-1.87-.1-.57-.27-.9-.49-1.08-.78-.64-2.16.48-2.9-.17-.38-.34-.72-.71-1.06-1.06,1.16-1.83,2.59-.46,3.96-.55.19,0,.38-.06.57-.14l-.22-1.15-.36-.03c-2.48-.2-4.97-.19-7.45.1-3.02.35-5.95,1.08-8.81,2.11.41.6,1.08,1.05,2.27,1.2.89.11-.49.73-.6,1.22-.69-.04-1.55-.58-1.85.65.69.61,1.33.57,1.96-.08.49-.06.97-.13,1.82-.24-1.43,2.26-3.58,1.88-3.93,1.94-3.07.93,1.45,4.21-2.94,3.55-.5-.64-1.04-.73-1.61-.66-.49.06-.99.26-1.49.36-1.83-.43-3.2-2.68-5.48-1.33l-.54-.35c-2.29,1.45-4.55,3.02-6.8,4.65-2.53,1.83-5.04,3.74-7.55,5.64-5.15,3.91-10.3,7.83-15.43,10.88l.12.36c-.23.01-.45,0-.65-.05l-.46.27h.03Zm-1.49,8.99l-.05-.02c-.98-.3-1.78-1.15-1.04-2.67l1.04.53,1.33.67c-.08.79-.42,1.73-1.27,1.49h0Zm1.55-1.55s-.04.02-.06.02h-.14l-.04.03h-.03v-.02h.07l.14-.1.14-.11c-.03.06-.04.15-.08.17h0Zm23.91-16.3c1.76.38,1.76.79,0,2.94-.36.44-.79.94-1.3,1.54,0-1.81-.01-3.25-.02-4.72.51.09.95.17,1.32.25h0Z"/>
        <path class="cls-1" d="m228.73,274.87c-.36-.04-.82.03-1.42.27l1.42.37,1.35.35.07.02-.07-.09c-.34-.43-.7-.85-1.35-.92h0Z"/>
        <path class="cls-1" d="m116.24,275.9c-.1-.51,1.2-1.35-.5-1.49-2.86-.23-3.32-1.58-1.81-3.86.71.98,1.32,1.83,2.2,3.05.84-2.34.66-4.12-1.65-4.18-1.58-.04-2.3-.46-2.57-1.11l-.29.23c-.79.59-1.57,1.18-2.36,1.76.69,2.34.19,4.69-.18,7.04-1.48-.75-2.95-1.49-4.89-2.47,1.2-.02,2.01-.03,2.88-.04-.03-.38,0-.74-.06-.75-.61-.12-1.2-.56-1.8-.85-.83.58-1.66,1.15-2.49,1.69-.05.54-.04,1.13-.12,1.65,1.89-.35,1.53.73,1.44,1.65l5.14,3.89c.13-.06.27-.11.41-.16.16.18.22.42.27.67l.51.39c.41-.29.83-.57,1.25-.86,1.89-1.32,3.76-2.7,5.63-4.1.84-.63,1.68-1.27,2.52-1.91-.8-.06-1.72.27-2.52.21-.37-.03-.72-.15-1.01-.44h0Zm-4.16,5.07c-.18-.03-.33-.08-.46-.13-.52-.24-.72-.7-.7-1.32h-.02.02c-.53,0-1.39.7-1.29-.6-.2-.32-.39-.65-.59-.98l.03-.28.03-.28c1.46-1.44,2.02-.62,2.52.35.13.25.26.51.4.75-.06.14-.13.27-.22.39l-.17.13-.7.51v.02l.7.06.27.02.42.66c-.08.24-.15.48-.23.72v-.02Z"/>
        <path class="cls-1" d="m232.92,274.82l.85.36.66-.26.52-.22c-.15-.2-.32-.37-.52-.53-.38-.29-.87-.48-1.5-.51-.48-.03-1.04.04-1.71.21l-.32.08.32.14,1.71.74h-.01Z"/>
        <path class="cls-1" d="m230.08,276.28l-.07.22.07-.02c.38-.11.76-.23,1.14-.36.4-.13.8-.27,1.2-.42l-1.2.11-1.02.09-.11.37h0Z"/>
        <path class="cls-1" d="m340.42,250.49l1.8-2.16c-.71-.25-1.43-.5-2.15-.77-.12.97.13,1.95.35,2.93h0Z"/>
        <path class="cls-1" d="m336.72,249.19c.37-.87.73-1.73.92-2.58-3.59-1.44-7.22-3.08-10.86-4.71-4.8-2.15-9.6-4.3-14.4-6.08.9,1.36,2.87.17,2.72,2.31-1.47.16-3.1.35-4.75,2,2.76,1.68,3.38,2.82,2.44,4.71-1.97-.88-1.29-2.48-2.63-4.52-.02.02-.04.03-.06.05v-.12c-.09-.15-.17-.3-.29-.45.12.07.22.14.34.21l.59-4.78c-3.74-1.32-7.48-2.38-11.22-3.02,2.31,1.75,2.1,3.76.18,8.01-1.33-.59-2.71-.99-4.34-.55-.19.05-.38.11-.57.18.17.29.37.57.57.83.68.86,1.52,1.59,2.25,2.37,7.83,1.33,16.26,5.1,24.69,8.88,2.2.99,4.4,1.97,6.59,2.92.06-.05.12-.1.17-.15l-.23-.32c.06.02.15.03.17.07.05.07.05.16.07.24,2.25.75,4.44,1.07,6.41-.62.4.44.65.88.82,1.33l1.84-2.2c.46-1.68,2.72-3.76-1.44-4h.02Z"/>
        <path class="cls-1" d="m173.08,259.67l-.46-.11c-.98-.23-1.95-.39-2.84.23-.1.97.1,1.65.67,2l.61.22c.2.04.43.06.68.05l.08.23.8.31c1.31.51,2.62,1.04,3.94,1.6.17-1.42-3.3-2.54-.86-4.5-.99-.73-1.81-.55-2.62-.04h0Zm-.46,2.42c-.08,0-.17-.02-.28-.04.08-.14.17-.27.28-.38l.12-.13c.26.4.19.56-.12.55h0Z"/>
        <path class="cls-1" d="m145.4,258.82c1.26-.43,2.18-.39,2.98-.06.15.06.29.13.42.2.89-.2,1.78-.36,2.67-.46,2-.23,4.05-.2,6.16.03l.03-.04c.27-.4.62-.74,1.05-1.01.53-.33,1.21-.57,2.07-.65h.05c.02-.37.08-.74.13-1.11.1-.76.2-1.52,0-2.16-.04-.14-.1-.28-.18-.41-.31-.54-.93-.97-2.06-1.18,0,0,0,0,0,0h-.02c-.21.87-.42,1.74-.69,2.85l-.35-.34c-1.36-1.38-1.43-2.18,0-2.43.29-.05.63-.08,1.04-.08v-.02h.03c1.83-.91-.5-3.4,1.58-4.21-.53-.07-1.06-.14-1.6-.19l-1.05-.1c-2.48-.2-4.96-.19-7.44.1-.62.07-1.23.16-1.84.26-6.83,1.15-13.21,4.21-19.38,8.11.33,6.06-.78,12.83-2.72,13.4-.86-1.27-.28-3.39-2.46-3.91-1.16-.76-2.32-1.51-3.53-2.3,1.2-.87,1.92-1.81,2.3-2.83-1.79,1.29-3.57,2.62-5.35,3.97l-2.52,1.9c1.07.49,1.71-.26,2.52-.77.23-.14.47-.27.74-.34.62,2.63,2.75,2.01,4.61,2.04-.29,4.1-3.07.44-4.27,1.16-1.36,1.01,1.68,2.46-.98,3.34,3.53-.31,4.76.82,5.03,2.57,8.03-6.09,16.07-12.03,24.05-14.54-.32-.26-.66-.55-1.03-.79h.02Zm2.98-4.96l1.57-1.5c.66,2.26-.09,3.04-1.57,3.21-.52.06-1.12.05-1.79,0l1.79-1.7h0Z"/>
        <path class="cls-1" d="m274.25,235.94c-1.08.52-2.16,1.07-3.23,1.66-.07,1.35.88,2.07,2.25,2.31.41.07.73.05.97-.04.81-.3.85-1.36,1.04-2.21.1-.17.17-.35.23-.54,1.39-.05,2.52-.28,1.64-2.03.03-.16.04-.32.05-.48-1,.41-1.98.85-2.96,1.32h0Z"/>
        <path class="cls-1" d="m172.62,250.88c-.7-.24-1.4-.48-2.09-.7l-.07.63c-.21.04-.41.07-.62.09-.59-.75-1.96-.94-2.53-1.68-2.12-.58-4.24-1.04-6.36-1.37l-.18-.03-.29-.04.29.31.18.19,1.48,1.62c-.08.91-.63,1.9.52,2.6.97,2.83,2.79,3.84,5.71,2.53.19.06.38.1.59.1.08.63-.47,1.48.86,1.83.42-.93.85-1.85,1.27-2.78h0c.28-.02.57-.04.85-.06.13,0,.25.02.38.03h.15c.85.61,1.69,1.21,2.54,1.82.44,1.17.68,2.39,2.48,2.4,2.19.02,3.07-1.23,3.68-2.92.43-.55,1.44.25,1.87-.3-3.58-1.56-7.14-3.03-10.72-4.28h.01Z"/>
        <path class="cls-1" d="m177.6,263.84c2.16.15,4.26.2,3.98,2.54l1.64.73c.08-.86-.05-1.73-.46-2.63-.68-1.51-2.75-2.47-5.17-.64h.01Z"/>
        <path class="cls-1" d="m154.96,288.89c.44-.05.88-.08,1.32-.11.49-.03.98-.04,1.47-.05.53,0,1.06,0,1.6.04-.14-.6-.09-1.21.5-1.89h0c-.38-2.19-1.35,0-1.99-.27v.02l-.09.11-.1.1.1-.13.08-.11h.02c.45-1.53.88-3.09,2.14-4.01.46-.34,1.04-.6,1.77-.73.48-.16.96-.32,1.44-.48l.34.08c2.08.53,4.08,1.84,6.35.66h0c.54-1.52-1.71-.66-1.63-2.48,1.25-.2,2.16.25,3.09.99.52.41,1.04.91,1.63,1.44l-1.63.2-1.23.15c-.12.95-2.24,1.06-.74,2.52-2.31.32-3.85-.95-5.84-1.8-.56-.24-1.17-.45-1.83-.57l1.83,1.98,4.87,5.25c-.1.2-.14.37-.15.53,1.02.28,2.06.6,3.09.94.56.19,1.13.37,1.69.58.4-1.03,1.43-1.8,3.78-2,.22,1.18.19,2.32.03,3.44,2.11.84,4.23,1.74,6.37,2.68-.93-1.08-3.31-.77-3.8-2.42,2.02-1.31,2.22-3.59,2.18-5.96-1.99-.82-.39-2.17.02-2.43.59-.38,1.04-.79,1.38-1.23-2.22-.92-4.44-1.79-6.65-2.57-.86.93-2.61,1.5-3.53,2.38.75-.85.31-2.55,1.76-2.99-1.07-.35-2.14-.68-3.22-.98-1.4-.4-2.8-.75-4.2-1.04l-.23,1.04c-1.15.02-2.17-1.93-3.38-1.18-.23.15-.48.39-.72.77-.24-.08-.49-.16-.73-.24.07-1.64-1.4-.65-2.11-.95-.15-.06-.28-.19-.34-.41h-.34l-1.56,2.51-1.4,2.27-.07-.11c-1.02-1.61-1.66-2.87-1.47-4.59-.37.03-.74.06-1.11.11-7.89.9-15.17,4.45-22.2,9.02-2.41,4.03.62,7.23,2.16,10.8,1.6-.51,1.6-2.67,3.65-2.36,0,.33,0,.63-.04.91,5.92-3.85,11.83-6.78,17.69-7.45v.02Zm17.79.48c-.56.49-1,.54-1.39.36-.84-.38-1.41-1.83-2.37-2.24-.02-1.53,1.31-1.27,2.37-1.42.78-.11,1.4-.44,1.24-1.86,1.63,2.01,1.33,4.13.14,5.16h0Z"/>
        <path class="cls-1" d="m163.03,289.17h.06l.47-.13c.18-.05.35-.12.52-.18.02-.01-.09-.33-.14-.5l-.38.34-.52.47h0Z"/>
        <path class="cls-1" d="m155.26,277.83l1.03.96,1.03.96c-.26-.82-.38-1.47-.4-2l-.63.02c-.34.02-.69.03-1.03.05h0Z"/>
        <path class="cls-1" d="m302.14,266.39c.74-.77,1.19-2.02,1.37-3.7-.46-.08-.91-.16-1.37-.23-3.57-.55-7.15-.7-10.73-.29-.9.1-1.79.25-2.67.42-4.02.77-7.89,2.2-11.66,4.07l1.02,1.77c-.9-.19-1.68-.08-2.39.2-.85.33-1.6.9-2.32,1.53l-.07-.19-.26-.64.13-.57c-.82.47-1.63.97-2.44,1.47-3.54,2.21-7.01,4.71-10.47,7.29l-.61.46c-1.27.95-2.54,1.91-3.8,2.87l-.83.64c-5.5,4.17-10.99,8.28-16.47,11.3-.02.6.13,1.25.21,1.88-.47-.09-.93-.18-1.4-.26.09-.44.11-.77.07-1.01-.45.24-.91.46-1.36.69l.67.34c-.78.64-1.1.43-1.26-.06-2.26,1.06-4.51,1.9-6.76,2.45-.38.09-.77.17-1.15.25.13.45.57.76,1.15,1,.27.11.56.21.87.3-.33.07-.62.14-.87.22-1.22.36-1.48.88-.42,2.46.14.21.28.38.42.52,1.44,1.43,2.98-.41,4.31.25.38.32.77.64,1.15.96-.15.83-.29,1.66-.43,2.49-.45-.3-.9-.59-1.54-1.01l-.39,3.14c3.53-.9,6.94-2.28,10.28-4.01.03-.1.07-.19.1-.27.67-1.52,1.36-1.61,1.73-.71,2.63-1.46,5.22-3.11,7.78-4.87l-.26-2.23c.96.35,1.49.74,1.72,1.22.62-.44,1.24-.87,1.85-1.32,1.09-.79,2.18-1.6,3.27-2.42-.16-.98.27-1.4,1.35-1.4v-.02h.02l.22-1.73c.11.03.25.05.38.07.22.03.41.07.46.18.33.71,0,1.02-.46,1.24-.19.09-.4.16-.59.24v.03h-.03l-.37.66.38-.29.61-.46,2.2-1.66c2.76-2.1,5.52-4.19,8.27-6.15.86-.61,1.71-1.21,2.57-1.79.8-.54,1.6-1.07,2.39-1.58.71-.45,1.42-.9,2.12-1.32l.25-1.98c.34.52.58.98.72,1.41,3.31-1.9,6.63-3.42,9.93-4.32,1.31-.36,2.62-.63,3.93-.77.51-.06,1.03-.1,1.55-.13.36-.13.73-.11,1.11-.03,1.2-.01,2.42.06,3.66.19.37-.23.75-.58,1.14-1.1-5.52.45-5.52-2.63-5.2-6.44,3.46,2.05,5.83,2.23,7.21.8v-.05Zm-46.78,17.58c-.11.05-.21.1-.31.12-.89.23-1.04-.69-.97-1.52l.97-.72.3-.23c.8.8,1.01,1.88,0,2.35h0Zm20.36-9.07l.12.03-.12.16-.05.07-.07-.29.12.03Zm-4.97,4.5l-.13.24c-.24-.27-.48-.54-.73-.81,0,0,.07-.13.06-.12l.79-.46.85-.5-.85,1.65h.01Zm2.57-1.79l-.57-.1.57-.4.54-.38c0,.33.02.66.02.99l-.57-.1h.01Zm.79-2.84c-.22-.3-.51-.57-.79-.86-.69-.7-1.26-1.44-.13-2.58l.13.07c1.42.85,1.47,2.02.79,3.36h0Zm1.6,3.37h-.01c-.07,0-.11-.34-.21-.66h.22c.25-.02.47-.05.67.02.12.04.15.36.21.55-.3.04-.59.11-.88.09h0Zm14.07-6.01c-.3.38-.65.52-1.05.48-.35-.04-.73-.22-1.13-.52.24-.81.62-1.24,1.13-1.28.26-.02.55.05.88.23.22.12.34.88.17,1.09h0Z"/>
        <path class="cls-1" d="m185.95,285.53l.52,1.36c-1.13,2.73-2.3,5.47.45,8.03.18.95.26,1.89.26,2.8l.91.41.17.08c1.52.68,3.04,1.36,4.56,2.03,2.66,1.17,5.31,2.3,7.97,3.33,0-.31.05-.68.14-1.12,1.16.11,2.57.44,3.39-.16.34-.25.58-.66.66-1.31.14-1.11.3-2.62-.66-3.52-.37-.34-.91-.6-1.68-.7-2.57-.22-3.46-1.1-1.64-3.35.45-.56,1.29-.54,1.93-.8-3.34-1.35-6.72-2.86-10.11-4.38l-.27-.12c-1.43-.64-2.86-1.28-4.28-1.91-1.17-.52-2.35-1.03-3.52-1.53,0,.56.57.78,1.2.86h0Zm6.6,6.23c.09.04.19.08.27.12,1.04.49,1.18,1.17.72,1.97-.08.14-.42.24-.72.26-.17,0-.32-.01-.4-.07-.91-.67-.63-1.43.13-2.27h0Zm-4.94,2.43c.21.03.4.02.6-.04l.05.02.73.29c-.21.48-.42.91-.73.91-.2,0-.44-.17-.73-.62.03-.19.06-.38.09-.56h-.01Z"/>
        <path class="cls-1" d="m229.9,305.59l-1.15-.25-3.71-.84c1.71-.81,3.66-2.46,1.34-2.73-2.41-.29-1.69-3.59-4.14-2.82l.18-1.44c-2.58-.04-5.24-.42-7.97-1.07-1.75-.41-3.53-.94-5.33-1.53-.22,1.61-.08,3.11,2.64,3.79-.22.97-.61,1.77-1.88,1.59-4.51-1.13-3.26,2.73-4.31,4.59-.22-.5-.69-.56-1.24-.46-.24.04-.51.11-.77.2l.77.27c3.38,1.18,6.75,2.16,10.13,2.8,4.16.79,8.33,1.07,12.49.59.61-.07,1.21-.16,1.81-.26l.26-.05-.26-.17-.56-.36.56-.61,1.15-1.25h0Zm-15.45-1.44h-.03v-.02h.06-.03v.02Zm.07-.69v-.04l-.07.5h0l-.03.22c-.49-.07-.98-.13-1.47-.21-.61-.11-1.2-.23-1.8-.34l.21-1.26c1.67.15,1.57-1.81,2.8-2.18l.28,1.7.15.93c-.03.23-.05.46-.08.69h.01Z"/>
        <path class="cls-1" d="m308.7,268.67c-.35-1.51,2.06-4.25-1.56-4.34-2.26-.06-2.61,1.74-2.19,3.72l-2.81.62-.66.14c.55,1.49-1.39,3.13-.48,4.61.38.06.76.14,1.14.21,4.8.94,9.81,2.75,14.91,4.88l7.34-8.8c-3.69-1.61-7.38-3.13-11.07-4.39-.99,1.85-2.54,3.04-4.62,3.35Z"/>
        <polygon class="cls-1" points="126.37 295.09 126.79 295.41 126.68 294.6 126.37 295.09"/>
        <polygon class="cls-1" points="132.43 299.68 132.57 299.58 132.35 299.62 132.43 299.68"/>
        <path class="cls-1" d="m295.07,298.11c-.07-.22-1.69-.22-2.51,0-2,.51-.71,2.1-.77,2.92-1.79.58-3.31,1.07-4.83,1.55,0,.01.01.02.02.03-.06.08-.13.16-.19.24.06-.09.11-.18.17-.27h0c-.95-1.53-1.6.86-2.62.05,1.97-3.21,4.22-5.86,8.57-6.47.85-.12,2.97-1.79,2.68-3.64l-.7.07c-7.1.81-13.7,3.77-20.08,7.68-.23.88-.33,1.84-.17,2.95l-2.06-1.54c-.82.54-1.63,1.09-2.45,1.65l.41.07c-1.57,2.13,2.3,1.67,1.7,3.33-4.75,1.15-5.91,1.42-5.69-.86l-.91.67c-2.1,1.55-4.19,3.14-6.28,4.73-5.14,3.9-10.27,7.8-15.39,10.84-2.23,1.33-4.46,2.49-6.68,3.42,1.17,2.14,2.84,2.74,5.27.84,1.48,1.51-.13,3-.64,2.76-3.56-1.65-4.92-.1-5.06,3.82-.84-2.42-3.34-3.49-5.06-4.88-.24-.2-.47-.4-.67-.61-.65.13-1.31.23-1.96.31-6.55.75-13.78-1.23-21.25-4.14l-.02.03c.84,2.25-.14,4.76,1.66,7.01,1.03,1.28-.59,2.43-2.18,2.76.19-1.02.39-2.05.61-3.19-.86-.18-1.59-.32-2.31-.47.62-2.84-1.42-2.26-3.04-2.22.67-2.61,1.84-4.63,5.23-3.94h0c-1.74-.69-3.49-1.42-5.25-2.17l-.93-.4-.42-.18c-1.74-.76-3.49-1.55-5.24-2.33-9-4.04-17.99-8.07-26.99-9.66-1.23-.22-2.46-.39-3.7-.51-.52-.05-1.05-.1-1.57-.13-.47,2.52.94,5.47-2.01,7.89.12-2.8-1.16-5.26-1.01-7.96-1.19.02-2.38.09-3.56.22-.31.03-.61.08-.92.12-3.09.44-6.08,1.27-9,2.41l4.81,3.63-.38-.47c-.08-.06-.16-.12-.24-.19l.25.17.47.57.25.19c2.39.17,3.4-1.2,3.82-3.36l.02.02c1.49,1.31.46,2.52,0,3.71-.18.46-.28.92-.12,1.38h.03l.09.08.12.1-.12-.08-.11-.08v-.02c-.5-.07-1.01-.14-1.41,0l1.52,1.15,1.46,1.1c.77.16,1.55.28,2.33.37,1.72-.08,3.48.01,5.28.24,1.22.16,2.45.38,3.7.66,7.2,1.6,14.86,5.03,22.53,8.48,2.37,1.06,4.74,2.13,7.12,3.14-.25-.48-.57-.95-.99-1.4l3.57.06h.42l.93.02h1.08c-.41.51-.8,1.02-1.08,1.56-.21.39-.37.79-.43,1.23l.43.17c9.27,3.74,18.53,6.41,27.8,5.35.46-.05.92-.11,1.38-.18,3.18-.49,6.26-1.41,9.28-2.63-.41-1.04-1.26-1.93-2.94-2.57-.06-2.55,4.42.81,3.22-3.06l2.62,1.38.82.43c0,.53-.24,1.19,0,1.55.11.16.18.31.24.47,5.97-3,11.7-7.08,17.37-11.35-.03-.03-.05-.06-.06-.09-.33-1.11-.56-2.39,1.26-2.64.11-.07.23-.13.34-.2-.09.09-.19.19-.29.28.25.39.51.79.67,1.2l1.3-.99.33-.25c2.66-2.02,5.31-4.04,7.96-5.94-3.37-1.23-3.26-1.4.18-7.13,1.68,1.11,1.72,1.13.27,6.81,6.79-4.83,13.56-8.83,20.28-10.03.29-.68.53-1.42.78-2.16.09-.27.75-.36,1.14-.54-1.38-.59-1.2-1.83-1.52-2.92l.02-.02Zm-128.95,16.26h-.78l-.79-.03c0-.16,0-.33,0-.49l.78.04.79.04c0,.15,0,.29,0,.44h0Zm2.92.83c-.25.3-.54.58-.83.87-.81-1.61.04-2.34.83-3.27.43-.51.85-1.07.98-1.88.45,2.1-.09,3.25-.98,4.27h0Zm32.65,14.1c-.12,0-.25-.03-.41-.07h0c-1.04-.31-.18-.96,0-1.53.03-.1.04-.2.02-.29h-.02v-.03h.04v.02l.41.05.91.11c-.11.71-.03,1.76-.91,1.73h-.03Zm.94-1.73h-.03v-.03h.04v.03h-.01Zm31.72,7.7c-.82.58-1.63.45-2.55.13-.91-.31-1.94-.82-3.19-1.01,1.21-.6,2.33-.92,3.19-1.19.85-.28,1.42-.51,1.53-.93-.26.37,2.98,1.61,1.02,3Zm9.62-10.15c-.08.06-.18.12-.27.2-.11-.47-.28-.79-.19-1,.06-.14.26-.22.46-.31.08-.04.16-.08.23-.13.09.27.29.56.24.8-.04.16-.23.28-.47.45h0Zm21.67-11.38c-.76-.22-1.43-.91-2.12-2,.77,0,1.48-.06,2.12,0,.88.1,1.6.44,2.12,1.55-.82.48-1.5.62-2.12.44h0Z"/>
        <path class="cls-1" d="m302.48,295.97l2.14-2.57-.18-.04.32-.13.36-.43c-1.04-.15-2.09-.26-3.14-.34-.02,1.18.02,2.36.49,3.51h.01Z"/>
        <path class="cls-1" d="m299.13,292.36c-.47,0-.94,0-1.42.02-1.22,2.04-.68,5.31,1.39,6.66.14.13.32.25.5.38l1.28-1.54c-.58.15-1.18.26-1.66.41-1.05-1.92-.21-3.9-.1-5.92h.01Z"/>
        <path class="cls-1" d="m296.78,301.26c.06.07.12.15.19.22.06.3.1.6.15.91l1.1-1.31c-.38.06-.8.19-1.25.41-.06-.07-.13-.15-.19-.22h0Z"/>
        <path class="cls-1" d="m259.12,344.48c1.44.27,2.32-.79,3.21-1.7.29.15.52.31.71.47l3.92-4.7c-1.37,1.03-2.74,2.07-4.11,3.11-1.24.94-2.49,1.88-3.73,2.82h0Z"/>
        <path class="cls-1" d="m260.52,345.76v.08s-.04.02-.07.02l.07-.11c-.71-.23-2.24.43-2.11-.75-8.62,6.43-17.22,12.17-25.75,13.14-5.99.69-12.55-.91-19.34-3.41-1.17-.43-2.34-.88-3.52-1.36l-.12-.05h0l.12.09.13.09-.13-.08-.13-.09h0c-.97-.16-1.94-.32-2.91-.49.24-.1.45-.26.66-.45-1.56-.66-3.12-1.34-4.69-2.04-.23.44-.62.8-1.29,1.05-.13.05-.26.09-.39.14l8.74,6.61,3.52,2.66,10.72,8.1c2.78.38,5.55.5,8.33.3.23-.51.45-1.01.48-1.54,3.5.47,2.8-2.54,4.02-3.96-1.31-1.1-2.14-.02-3.07-.02.57-3.13,5.25-.78,5.77-3.97.67.29,1.34.58,2.01.87-.28.4-.57.79-.85,1.19-.03.25-.07.5-.1.76.05.14.05.29,0,.43-2.27.53-1.91,1.77-1.11,3.17,1.51.13,1.74-1.02,2.38-1.67,1.48.11,1.88-4.4,4.17-.89l14.44-17.32c-.01-.13,0-.27,0-.43.06-.01.13-.02.18-.05s.05-.1.08-.16c-.06,0-.12.01-.25.12h0v.02Zm-47.2,13.01c.15.23.35.52.63.85-.23,0-.43-.02-.63-.04-3.94-.35-2.31-2.9-2.29-4.89.96-.12,1.67.12,2.29.51.9.57,1.6,1.45,2.62,2.04-.57.42-2,.1-2.62.35-.35.14-.45.45,0,1.18Z"/>
        <path class="cls-1" d="m196.9,348.2c-.08.02-.15.03-.22.04l1.82,1.38c.2-.29.4-.59.59-.89l-2.2-.99.02.46h-.01Z"/>
        <polygon class="cls-1" points="194.8 346.82 195.43 347.3 195.42 347.1 194.8 346.82"/>
      </g>
    </g>
  </g>
</svg>