<?xml version="1.0" encoding="UTF-8"?>
<svg id="Layer_2" data-name="Layer 2" xmlns="http://www.w3.org/2000/svg" viewBox="0 0 1763 1500">
  <defs>
    <style>
      .cls-1 {
        fill: #fff;
        stroke-width: 0px;
      }
    </style>
  </defs>
  <g id="Layer_1-2" data-name="Layer 1">
    <g id="_3" data-name="3">
      <g>
        <path class="cls-1" d="m1212.44,482.02c-2.96-2.83-5.97-5.62-9.03-8.35-4.58-3.37-9.71-6.04-15.23-7.87-5.43-1.8-11.24-2.79-17.27-2.79-30.33,0-54.91,24.58-54.91,54.91,0,6.04.99,11.84,2.79,17.27,2.18,6.59,5.57,12.62,9.91,17.84,3.57,3.13,7.07,6.36,10.47,9.68,48.62,47.48,78.81,113.75,78.81,187.08s-30.38,140.02-79.27,187.53c-3.33,3.24-6.75,6.38-10.25,9.44-4.29,5.09-7.66,10.98-9.88,17.4-1.94,5.62-3.01,11.65-3.01,17.92,0,30.33,24.59,54.91,54.91,54.91,6.28,0,12.3-1.07,17.92-3.01,5.18-1.79,10-4.32,14.35-7.49,3.17-2.83,6.29-5.71,9.36-8.64,70.73-67.46,114.81-162.62,114.81-268.08s-43.94-200.32-114.48-267.77Z"/>
        <path class="cls-1" d="m1368.39,329.72c-3.76-3.69-7.58-7.32-11.44-10.91-4.29-3.05-9.04-5.5-14.12-7.23-5.54-1.88-11.48-2.92-17.65-2.92-30.33,0-54.91,24.58-54.91,54.91,0,6.18,1.04,12.11,2.92,17.65,2.26,6.66,5.76,12.74,10.23,17.98,2.75,2.57,5.48,5.16,8.17,7.79,89.15,87.05,144.5,208.56,144.5,343s-55.35,255.96-144.5,343c-2.69,2.63-5.41,5.22-8.16,7.78-4.47,5.24-7.98,11.32-10.24,17.98-1.88,5.54-2.92,11.48-2.92,17.66,0,30.33,24.59,54.91,54.91,54.91,6.18,0,12.11-1.04,17.65-2.92,5.08-1.73,9.83-4.17,14.12-7.22,3.86-3.59,7.67-7.22,11.43-10.91,109.01-106.79,176.65-255.63,176.65-420.28s-67.64-313.5-176.65-420.28Z"/>
        <path class="cls-1" d="m1520.65,173.8c-2.62-2.56-5.26-5.11-7.91-7.63-4.69-3.7-10-6.66-15.75-8.68-5.71-2.01-11.84-3.11-18.24-3.11-30.33,0-54.91,24.58-54.91,54.91,0,6.39,1.11,12.53,3.11,18.24,1.99,5.64,4.87,10.85,8.47,15.48,3.75,3.54,7.45,7.13,11.12,10.75,128.09,126.43,207.49,302.06,207.49,496.26s-79.4,369.83-207.49,496.26c-3.67,3.62-7.37,7.21-11.12,10.75-3.61,4.62-6.49,9.84-8.47,15.48-2.01,5.71-3.12,11.84-3.12,18.24,0,30.33,24.59,54.91,54.91,54.91,6.4,0,12.53-1.1,18.24-3.12,5.75-2.02,11.05-4.98,15.75-8.68,2.66-2.53,5.3-5.08,7.92-7.64,149.53-146.36,242.34-350.43,242.34-576.2s-92.81-429.85-242.35-576.2Z"/>
      </g>
      <path class="cls-1" d="m954.93,0c-8.79,0-17.09,2.09-24.44,5.79l-15.13,11.26-24.5,18.23L375.63,418.79H58.83c-32.49,0-58.83,26.34-58.83,58.83v544.75c0,32.49,26.34,58.83,58.83,58.83h316.8l515.24,383.51,24.5,18.23,15.13,11.26c7.35,3.7,15.65,5.79,24.44,5.79,26.79,0,49.04-19.34,53.6-44.81V44.81c-4.56-25.47-26.82-44.81-53.6-44.81Zm-64.06,1318.03l-455.96-339.39-4.55-3.39-7.76-5.78c-6.45-3.77-13.95-5.94-21.96-5.94H117.67v-427.08h285.88c6.66-.44,12.91-2.37,18.42-5.47l8.9-6.62,4.04-3.01,455.96-339.39v1136.06Z"/>
    </g>
  </g>
</svg>