<?xml version="1.0" encoding="UTF-8"?>
<svg id="Layer_2" data-name="Layer 2" xmlns="http://www.w3.org/2000/svg" viewBox="0 0 1307.47 1500">
  <defs>
    <style>
      .cls-1 {
        fill: #fff;
        stroke-width: 0px;
      }
    </style>
  </defs>
  <g id="Layer_1-2" data-name="Layer 1">
    <g id="_6" data-name="6">
      <path class="cls-1" d="m1290.68,1263.55L535.25,446.66l33.42-24.87,322.2-239.82v588.23l117.67,127.24V44.81c-4.56-25.47-26.82-44.81-53.6-44.81-8.79,0-17.09,2.09-24.44,5.79l-15.13,11.26-24.5,18.23-402.54,299.62-33.42,24.88L192.94,76.51c-23.69-25.62-63.67-27.19-89.3-3.49-25.62,23.69-27.19,63.67-3.49,89.3l790.71,855.05v300.67l-455.96-339.39-4.55-3.39-7.76-5.78c-6.45-3.77-13.95-5.94-21.96-5.94H117.67v-427.08h272.07l-108.81-117.67H58.83c-32.49,0-58.83,26.34-58.83,58.83v544.75c0,32.49,26.34,58.83,58.83,58.83h316.79l515.24,383.51,24.5,18.23,15.13,11.26c7.35,3.7,15.65,5.79,24.44,5.79,26.79,0,49.04-19.34,53.6-44.81v-310.59l189.35,204.76c23.69,25.62,63.67,27.19,89.3,3.49,25.62-23.7,27.19-63.67,3.49-89.3Z"/>
    </g>
  </g>
</svg>