<?xml version="1.0" encoding="UTF-8"?>
<svg id="Layer_2" data-name="Layer 2" xmlns="http://www.w3.org/2000/svg" viewBox="0 0 1839.72 1839.72">
  <defs>
    <style>
      .cls-1 {
        fill: #fff;
        stroke-width: 0px;
      }
    </style>
  </defs>
  <g id="Layer_1-2" data-name="Layer 1">
    <path class="cls-1" d="m1767.41,561.79c-46.33-109.54-112.65-207.91-197.11-292.37-84.46-84.46-182.83-150.78-292.37-197.11C1164.49,24.33,1044.01,0,919.86,0s-244.63,24.33-358.07,72.31c-109.54,46.33-207.91,112.65-292.37,197.11-84.46,84.46-150.78,182.83-197.11,292.37C24.33,675.23,0,795.7,0,919.86s24.33,244.63,72.31,358.07c46.33,109.54,112.65,207.91,197.11,292.37,84.46,84.46,182.83,150.78,292.37,197.11,113.44,47.98,233.91,72.31,358.07,72.31s244.63-24.33,358.07-72.31c109.54-46.33,207.91-112.65,292.37-197.11,84.46-84.46,150.78-182.83,197.11-292.37,47.98-113.44,72.31-233.91,72.31-358.07s-24.33-244.63-72.31-358.07Zm-532.06,1104.96c-99.9,42.25-206.04,63.68-315.49,63.68s-215.6-21.42-315.49-63.68c-75.84-32.08-145.61-75.05-208.16-128.11,19.56-118.11,78.76-226.36,168.61-307.24,97.55-87.81,223.64-136.17,355.05-136.17s257.5,48.36,355.04,136.17c89.85,80.88,149.05,189.13,168.61,307.24-62.54,53.07-132.32,96.04-208.17,128.12Zm-520.21-765.64c-54.68-54.68-84.8-127.38-84.8-204.72s30.11-150.03,84.8-204.72c54.68-54.68,127.39-84.8,204.72-84.8s150.04,30.11,204.72,84.8c54.68,54.68,84.8,127.39,84.8,204.72s-30.11,150.03-84.8,204.72c-54.68,54.68-127.39,84.8-204.72,84.8s-150.04-30.11-204.72-84.8Zm951.61,334.23c-32.84,77.64-77.1,148.92-131.91,212.59-32.93-113.9-97.25-217.14-186.82-297.77-60.25-54.24-129.53-95.99-204.07-123.83,20.65-14.05,40-30.05,57.9-47.95,36.61-36.61,65.35-79.25,85.44-126.75,20.81-49.2,31.36-101.43,31.36-155.25s-10.55-106.05-31.36-155.25c-20.09-47.49-48.84-90.14-85.44-126.75-36.61-36.61-79.25-65.35-126.75-85.44-49.2-20.81-101.43-31.36-155.25-31.36s-106.05,10.55-155.25,31.36c-47.49,20.09-90.14,48.84-126.75,85.44-36.61,36.61-65.35,79.25-85.44,126.75-20.81,49.2-31.36,101.43-31.36,155.25s10.55,106.05,31.36,155.25c20.09,47.49,48.84,90.14,85.44,126.75,17.9,17.9,37.25,33.91,57.9,47.95-74.54,27.84-143.81,69.59-204.06,123.83-89.58,80.64-153.89,183.88-186.82,297.78-54.82-63.68-99.08-134.96-131.92-212.6-42.25-99.9-63.68-206.04-63.68-315.49s21.42-215.6,63.68-315.49c40.82-96.52,99.28-183.21,173.74-257.67,74.46-74.46,161.15-132.91,257.67-173.73,99.9-42.25,206.04-63.68,315.49-63.68s215.6,21.42,315.49,63.68c96.52,40.82,183.21,99.28,257.67,173.73,74.46,74.46,132.91,161.15,173.74,257.67,42.25,99.9,63.68,206.04,63.68,315.49s-21.42,215.6-63.68,315.49Z"/>
  </g>
</svg>